<svg xmlns="http://www.w3.org/2000/svg" viewBox="0 0 131.29 98.47">
    <defs>
        <style>.cls-1{fill:#fff;fill-rule:evenodd;}</style>
    </defs>
    <g id="Layer_2" data-name="Layer 2">
        <g id="Layer_1-2" data-name="Layer 1">
            <rect width="131.29" height="98.47"/>
            <path class="cls-1"
                  d="M37.15,35.54a6.66,6.66,0,0,0,1.54-4.75,6.6,6.6,0,0,0-4.39,2.26,6.27,6.27,0,0,0-1.57,4.58,5.49,5.49,0,0,0,4.42-2.09ZM38.67,38c-2.45-.15-4.53,1.39-5.69,1.39S30,38,28.09,38.07A7.18,7.18,0,0,0,22,41.79c-2.63,4.52-.7,11.24,1.85,14.92,1.25,1.83,2.74,3.84,4.71,3.76s2.59-1.2,4.85-1.2,2.92,1.2,4.89,1.17,3.32-1.83,4.56-3.65a16.41,16.41,0,0,0,2-4.2,6.63,6.63,0,0,1-4-6,6.74,6.74,0,0,1,3.21-5.65A6.94,6.94,0,0,0,38.67,38ZM57,47.33h4.87c3.7,0,5.8-2,5.8-5.44s-2.1-5.43-5.78-5.43H57Zm6-14.46a8.6,8.6,0,0,1,9,9c0,5.35-3.78,9-9.14,9H57v9.35H52.76V32.87ZM86,52.81V51.27l-4.73.31c-2.65.17-4,1.15-4,2.88s1.43,2.75,3.69,2.75C83.8,57.21,86,55.37,86,52.81Zm-12.9,1.76c0-3.51,2.67-5.52,7.61-5.82L86,48.43V46.91c0-2.22-1.45-3.43-4-3.43-2.14,0-3.7,1.1-4,2.78H74.07c.12-3.54,3.46-6.12,8-6.12,4.86,0,8,2.54,8,6.49V60.25H86.14V57h-.09a7,7,0,0,1-6.26,3.49C75.84,60.45,73.09,58.1,73.09,54.57Zm20.59,13V64.29a11.9,11.9,0,0,0,1.25.07c1.88,0,2.94-.79,3.59-2.84l.38-1.21L91.71,40.39h4.44l5,16.16h.09l5-16.16h4.32l-7.45,20.92c-1.71,4.8-3.66,6.38-7.8,6.38a12.68,12.68,0,0,1-1.65-.12Z"/>
        </g>
    </g>
</svg>
