<?xml version="1.0" encoding="UTF-8" standalone="no"?>
<!DOCTYPE svg PUBLIC "-//W3C//DTD SVG 1.1//EN" "http://www.w3.org/Graphics/SVG/1.1/DTD/svg11.dtd">
<svg width="100%" height="100%" viewBox="0 0 175 132" version="1.1" xmlns="http://www.w3.org/2000/svg"
     xmlns:xlink="http://www.w3.org/1999/xlink" xml:space="preserve" xmlns:serif="http://www.serif.com/"
     style="fill-rule:evenodd;clip-rule:evenodd;stroke-linejoin:round;stroke-miterlimit:2;">
    <g id="Layer_2">
        <g id="Layer_1-2">
            <rect x="0" y="0" width="175" height="131.25"/>
        </g>
        <g transform="matrix(0.529068,0,0,0.47385,15.1613,50.2974)">
            <path
                d="M137.222,51.448L134.6,56.476L138.255,56.476L137.222,51.448ZM133.952,57.724L132.688,60.161L131.13,60.161L136.806,49.519L138.209,49.519L140.507,60.161L139.027,60.161L138.518,57.724L133.952,57.724Z"
                style="fill:white;fill-rule:nonzero;"/>
            <path
                d="M231.366,59.234C231.922,59.234 232.385,59.127 232.755,58.917C233.124,58.706 233.397,58.436 233.571,58.107C233.746,57.778 233.835,57.439 233.835,57.089C233.835,56.781 233.75,56.516 233.579,56.295C233.41,56.075 233.119,55.861 232.708,55.656L231.366,55.084C230.605,54.745 230.058,54.375 229.724,53.974C229.39,53.574 229.223,53.084 229.223,52.509C229.223,51.882 229.381,51.329 229.7,50.851C230.019,50.372 230.465,50.005 231.035,49.748C231.606,49.492 232.262,49.363 233.001,49.363C233.618,49.372 234.158,49.457 234.62,49.617C235.083,49.776 235.49,50.016 235.84,50.333L235.608,51.768C234.817,51.049 233.896,50.683 232.847,50.673C232.21,50.673 231.688,50.832 231.282,51.151C230.875,51.47 230.673,51.876 230.673,52.37C230.673,52.648 230.773,52.884 230.973,53.079C231.174,53.275 231.541,53.495 232.075,53.743L233.387,54.329C234.097,54.679 234.598,55.056 234.891,55.462C235.184,55.868 235.33,56.354 235.33,56.919C235.33,57.567 235.192,58.164 234.914,58.709C234.637,59.254 234.189,59.699 233.571,60.042C232.955,60.387 232.163,60.56 231.196,60.56C229.869,60.56 228.826,60.225 228.066,59.557L228.313,58.031C229.227,58.832 230.245,59.234 231.366,59.234Z"
                style="fill:white;fill-rule:nonzero;"/>
            <path
                d="M238.794,54.243C238.306,54.67 237.974,55.187 237.799,55.794L242.273,55.794C242.283,55.711 242.287,55.599 242.287,55.454C242.287,54.878 242.134,54.426 241.825,54.097C241.517,53.769 241.08,53.604 240.514,53.604C239.857,53.604 239.282,53.818 238.794,54.243ZM242.851,53.287C243.36,53.848 243.614,54.576 243.614,55.469C243.614,55.768 243.599,56.015 243.568,56.21C243.537,56.407 243.485,56.637 243.414,56.904L237.614,56.904C237.584,57.675 237.783,58.27 238.215,58.686C238.648,59.102 239.234,59.31 239.975,59.31C240.488,59.31 240.957,59.246 241.379,59.118C241.799,58.99 242.215,58.796 242.627,58.539L242.442,59.696C241.651,60.231 240.714,60.497 239.635,60.497C238.926,60.497 238.311,60.346 237.792,60.042C237.273,59.74 236.876,59.321 236.605,58.786C236.332,58.251 236.195,57.65 236.195,56.982C236.195,56.323 236.36,55.642 236.689,54.938C237.018,54.234 237.518,53.643 238.185,53.163C238.854,52.687 239.676,52.447 240.652,52.447C241.61,52.447 242.342,52.727 242.851,53.287Z"
                style="fill:white;fill-rule:nonzero;"/>
            <path
                d="M248.37,53.851C247.764,53.851 247.25,54.069 246.829,54.506C246.407,54.943 246.128,55.578 245.995,56.41L245.394,60.221L244.021,60.221L245.208,52.694L246.535,52.694L246.335,53.973C246.952,53.089 247.693,52.648 248.555,52.648C248.772,52.648 248.972,52.663 249.157,52.694L248.972,53.897C248.787,53.867 248.587,53.851 248.37,53.851Z"
                style="fill:white;fill-rule:nonzero;"/>
            <path
                d="M252.496,60.22L251.216,60.22L249.427,52.694L250.8,52.694L252.079,58.57L255.21,52.694L256.644,52.694L252.496,60.22Z"
                style="fill:white;fill-rule:nonzero;"/>
            <path
                d="M257.644,51.243C257.506,51.1 257.437,50.92 257.437,50.703C257.437,50.437 257.538,50.205 257.743,50.01C257.95,49.815 258.187,49.717 258.454,49.717C258.67,49.717 258.847,49.789 258.986,49.933C259.125,50.076 259.194,50.257 259.194,50.473C259.194,50.73 259.091,50.958 258.885,51.159C258.681,51.36 258.444,51.459 258.176,51.459C257.961,51.459 257.782,51.388 257.644,51.243ZM257.483,60.22L256.109,60.22L257.267,52.694L258.653,52.694L257.483,60.22Z"
                style="fill:white;fill-rule:nonzero;"/>
            <path
                d="M260.696,60.035C260.193,59.728 259.795,59.307 259.509,58.779C259.221,58.248 259.077,57.665 259.077,57.028C259.077,56.226 259.26,55.475 259.624,54.776C259.989,54.076 260.519,53.514 261.213,53.087C261.907,52.66 262.723,52.447 263.657,52.447C264.563,52.447 265.298,52.673 265.863,53.125L265.633,54.529C265.109,53.974 264.424,53.696 263.581,53.696C262.985,53.696 262.452,53.848 261.984,54.151C261.517,54.454 261.153,54.853 260.898,55.346C260.64,55.84 260.51,56.37 260.51,56.935C260.51,57.624 260.706,58.182 261.097,58.609C261.488,59.035 262.023,59.248 262.701,59.248C263.123,59.248 263.545,59.171 263.966,59.017C264.388,58.864 264.763,58.637 265.093,58.338L264.876,59.757C264.476,60.025 264.074,60.215 263.673,60.328C263.273,60.441 262.846,60.497 262.394,60.497C261.765,60.497 261.2,60.343 260.696,60.035Z"
                style="fill:white;fill-rule:nonzero;"/>
            <path
                d="M268.637,54.243C268.149,54.67 267.817,55.187 267.642,55.794L272.115,55.794C272.125,55.711 272.13,55.599 272.13,55.454C272.13,54.878 271.977,54.426 271.668,54.097C271.359,53.769 270.922,53.604 270.357,53.604C269.698,53.604 269.125,53.818 268.637,54.243ZM272.694,53.287C273.202,53.848 273.457,54.576 273.457,55.469C273.457,55.768 273.442,56.015 273.409,56.21C273.38,56.407 273.327,56.637 273.257,56.904L267.456,56.904C267.427,57.675 267.626,58.27 268.058,58.686C268.489,59.102 269.076,59.31 269.817,59.31C270.331,59.31 270.799,59.246 271.221,59.118C271.642,58.99 272.058,58.796 272.47,58.539L272.284,59.696C271.493,60.231 270.557,60.497 269.478,60.497C268.769,60.497 268.152,60.346 267.635,60.042C267.115,59.74 266.719,59.321 266.446,58.786C266.174,58.251 266.038,57.65 266.038,56.982C266.038,56.323 266.201,55.642 266.531,54.938C266.861,54.234 267.36,53.643 268.027,53.163C268.696,52.687 269.518,52.447 270.494,52.447C271.452,52.447 272.185,52.727 272.694,53.287Z"
                style="fill:white;fill-rule:nonzero;"/>
            <path
                d="M198.821,49.471C198.502,51.567 196.902,51.567 195.354,51.567L194.474,51.567L195.091,47.655C195.128,47.417 195.332,47.243 195.572,47.243L195.976,47.243C197.028,47.243 198.025,47.243 198.537,47.844C198.845,48.202 198.937,48.736 198.821,49.471ZM198.148,44.004L192.311,44.004C191.911,44.004 191.571,44.294 191.509,44.69L189.149,59.657C189.102,59.951 189.33,60.218 189.63,60.218L192.625,60.218C192.903,60.218 193.142,60.015 193.186,59.74L193.855,55.496C193.917,55.102 194.256,54.812 194.655,54.812L196.503,54.812C200.347,54.812 202.567,52.951 203.147,49.263C203.407,47.65 203.157,46.383 202.402,45.495C201.571,44.52 200.101,44.004 198.148,44.004Z"
                style="fill:white;fill-rule:nonzero;"/>
            <path
                d="M157.189,49.471C156.87,51.567 155.27,51.567 153.722,51.567L152.841,51.567L153.458,47.655C153.496,47.417 153.7,47.243 153.94,47.243L154.343,47.243C155.397,47.243 156.392,47.243 156.904,47.844C157.212,48.202 157.305,48.736 157.189,49.471ZM156.515,44.004L150.678,44.004C150.279,44.004 149.939,44.294 149.877,44.69L147.517,59.657C147.471,59.951 147.698,60.218 147.997,60.218L150.784,60.218C151.184,60.218 151.524,59.928 151.585,59.534L152.222,55.496C152.284,55.102 152.623,54.812 153.023,54.812L154.87,54.812C158.715,54.812 160.934,52.951 161.515,49.263C161.776,47.65 161.525,46.383 160.77,45.495C159.94,44.52 158.468,44.004 156.515,44.004Z"
                style="fill:white;fill-rule:nonzero;"/>
            <path
                d="M170.067,54.844C169.796,56.442 168.528,57.513 166.911,57.513C166.101,57.513 165.452,57.252 165.034,56.758C164.621,56.27 164.465,55.573 164.597,54.795C164.849,53.213 166.137,52.106 167.73,52.106C168.523,52.106 169.167,52.369 169.593,52.868C170.021,53.369 170.19,54.072 170.067,54.844ZM173.962,49.404L171.167,49.404C170.928,49.404 170.723,49.578 170.687,49.815L170.564,50.596L170.368,50.313C169.762,49.435 168.413,49.141 167.067,49.141C163.978,49.141 161.34,51.481 160.827,54.763C160.56,56.401 160.939,57.964 161.867,59.057C162.721,60.061 163.938,60.479 165.388,60.479C167.877,60.479 169.257,58.879 169.257,58.879L169.132,59.656C169.086,59.951 169.315,60.218 169.613,60.218L172.131,60.218C172.529,60.218 172.868,59.928 172.932,59.535L174.443,49.966C174.488,49.67 174.261,49.404 173.962,49.404Z"
                style="fill:white;fill-rule:nonzero;"/>
            <path
                d="M211.698,54.844C211.429,56.442 210.16,57.513 208.544,57.513C207.734,57.513 207.085,57.252 206.667,56.758C206.253,56.27 206.098,55.573 206.23,54.795C206.481,53.213 207.769,52.106 209.361,52.106C210.155,52.106 210.8,52.369 211.226,52.868C211.653,53.369 211.821,54.072 211.698,54.844ZM215.594,49.404L212.8,49.404C212.56,49.404 212.356,49.578 212.318,49.815L212.195,50.596L212,50.313C211.395,49.435 210.046,49.141 208.698,49.141C205.61,49.141 202.973,51.481 202.459,54.763C202.193,56.401 202.571,57.964 203.5,59.057C204.353,60.061 205.569,60.479 207.02,60.479C209.51,60.479 210.89,58.879 210.89,58.879L210.765,59.656C210.719,59.951 210.947,60.218 211.245,60.218L213.763,60.218C214.161,60.218 214.501,59.928 214.564,59.535L216.074,49.966C216.121,49.67 215.893,49.404 215.594,49.404Z"
                style="fill:white;fill-rule:nonzero;"/>
            <path
                d="M188.848,49.404L186.038,49.404C185.771,49.404 185.519,49.536 185.368,49.76L181.493,55.467L179.851,49.983C179.747,49.639 179.432,49.404 179.073,49.404L176.312,49.404C175.978,49.404 175.743,49.732 175.851,50.047L178.944,59.127L176.034,63.233C175.806,63.555 176.037,64 176.432,64L179.238,64C179.504,64 179.753,63.87 179.905,63.652L189.248,50.167C189.472,49.845 189.24,49.404 188.848,49.404Z"
                style="fill:white;fill-rule:nonzero;"/>
            <path
                d="M218.889,44.415L216.493,59.657C216.445,59.952 216.675,60.218 216.974,60.218L219.383,60.218C219.781,60.218 220.121,59.929 220.184,59.535L222.546,44.568C222.592,44.271 222.364,44.004 222.066,44.004L219.369,44.004C219.13,44.004 218.926,44.178 218.889,44.415Z"
                style="fill:white;fill-rule:nonzero;"/>
            <path
                d="M8.892,31.788L15.267,31.788C20.189,31.788 22.65,30.166 22.65,27.034C22.65,23.959 20.021,22.281 14.876,22.281L8.892,22.281L8.892,31.788ZM8.892,8.859L8.892,17.695L14.485,17.695C18.679,17.695 20.86,16.129 20.86,13.277C20.86,10.369 18.623,8.859 14.428,8.859L8.892,8.859ZM0,36.542L0,31.788L3.747,31.788L3.747,8.859L0,8.859L0,4.105L14.987,4.105C21.866,4.105 26.061,7.292 26.061,12.829C26.061,16.465 23.936,18.701 21.252,19.764C25.11,20.827 27.851,23.567 27.851,27.314C27.851,33.242 23.265,36.542 15.771,36.542L0,36.542Z"
                style="fill:white;fill-rule:nonzero;"/>
            <path
                d="M55.032,19.652C54.472,17.751 53.074,16.632 51.229,16.632C46.923,16.632 42.84,19.82 42.84,25.636L42.84,31.788L51.117,31.788L51.117,36.542L32.661,36.542L32.661,31.788L37.918,31.788L37.918,17.471L33.78,17.471L33.78,12.717L42.784,12.717L42.784,16.744C44.294,13.948 47.37,11.934 51.452,11.934C56.039,11.934 58.891,14.563 59.73,18.31L55.032,19.652Z"
                style="fill:white;fill-rule:nonzero;"/>
            <path
                d="M80.199,26.923C78.633,26.364 76.284,25.916 74.104,25.916C70.972,25.916 67.951,26.923 67.951,29.775C67.951,31.9 69.853,32.907 72.482,32.907C76.116,32.907 80.199,30.949 80.199,27.594L80.199,26.923ZM80.199,22.672L80.199,21.33C80.199,17.974 77.515,16.576 74.607,16.576C71.866,16.576 69.517,17.695 67.616,19.428L64.372,15.906C66.61,13.836 69.797,11.934 74.607,11.934C80.591,11.934 85.233,15.122 85.233,21.162L85.233,31.788L88.7,31.788L88.7,36.542L80.199,36.542L80.199,34.025C78.913,36.095 75.446,37.325 72.034,37.325C67.112,37.325 62.862,34.808 62.862,29.831C62.862,23.959 68.623,21.721 73.88,21.721C76.452,21.721 78.578,22.225 80.199,22.672Z"
                style="fill:white;fill-rule:nonzero;"/>
            <path
                d="M109.395,7.964L103.858,7.964L103.858,0.694L109.395,0.694L109.395,7.964ZM118.567,31.788L118.567,36.542L94.518,36.542L94.518,31.788L104.473,31.788L104.473,17.471L96.866,17.471L96.866,12.717L109.395,12.717L109.395,31.788L118.567,31.788Z"
                style="fill:white;fill-rule:nonzero;"/>
            <path
                d="M124.496,31.788L128.131,31.788L128.131,17.471L124.719,17.471L124.719,12.717L132.997,12.717L132.997,15.793C134.45,13.444 137.47,11.934 141.161,11.934C146.475,11.934 150.277,15.29 150.277,20.715L150.277,31.788L153.912,31.788L153.912,36.542L141.553,36.542L141.553,31.788L145.356,31.788L145.356,22.057C145.356,17.918 142.839,16.744 140.546,16.744C136.799,16.744 133.052,19.54 133.052,23.846L133.052,31.788L136.855,31.788L136.855,36.542L124.496,36.542L124.496,31.788Z"
                style="fill:white;fill-rule:nonzero;"/>
            <path
                d="M161.825,17.471L155.618,17.471L155.618,12.717L161.825,12.717L161.825,4.105L166.747,4.105L166.747,12.717L178.323,12.717L178.323,17.471L166.747,17.471L166.747,27.482C166.747,31.173 169.319,32.683 172.283,32.683C175.08,32.683 177.429,31.117 179.163,29.384L182.462,32.795C180.281,35.144 176.926,37.325 172.283,37.325C166.3,37.325 161.825,34.025 161.825,27.65L161.825,17.471Z"
                style="fill:white;fill-rule:nonzero;"/>
            <path
                d="M209.308,19.652C208.748,17.751 207.351,16.632 205.505,16.632C201.198,16.632 197.115,19.82 197.115,25.636L197.115,31.788L205.393,31.788L205.393,36.542L186.938,36.542L186.938,31.788L192.194,31.788L192.194,17.471L188.056,17.471L188.056,12.717L197.06,12.717L197.06,16.744C198.57,13.948 201.646,11.934 205.729,11.934C210.315,11.934 213.166,14.563 214.006,18.31L209.308,19.652Z"
                style="fill:white;fill-rule:nonzero;"/>
            <path
                d="M222.564,22.169L237.216,22.169C236.488,18.758 233.469,16.465 230.113,16.465C226.31,16.465 223.402,18.813 222.564,22.169ZM242.417,32.907C239.956,35.479 235.594,37.325 230.729,37.325C222.731,37.325 217.139,31.956 217.139,24.63C217.139,17.304 222.564,11.934 230.113,11.934C237.608,11.934 242.864,17.695 242.864,25.524L242.864,26.364L222.34,26.364C223.178,30.334 226.478,32.739 230.784,32.739C234.363,32.739 237.44,31.285 239.117,29.439L242.417,32.907Z"
                style="fill:white;fill-rule:nonzero;"/>
            <path
                d="M253.156,22.169L267.809,22.169C267.081,18.758 264.062,16.465 260.706,16.465C256.903,16.465 253.994,18.813 253.156,22.169ZM273.01,32.907C270.549,35.479 266.187,37.325 261.321,37.325C253.323,37.325 247.731,31.956 247.731,24.63C247.731,17.304 253.156,11.934 260.706,11.934C268.2,11.934 273.457,17.695 273.457,25.524L273.457,26.364L252.932,26.364C253.772,30.334 257.07,32.739 261.377,32.739C264.956,32.739 268.032,31.285 269.71,29.439L273.01,32.907Z"
                style="fill:white;fill-rule:nonzero;"/>
        </g>
    </g>
</svg>
