<?xml version="1.0" encoding="utf-8"?>
<!-- Generator: Adobe Illustrator 23.0.1, SVG Export Plug-In . SVG Version: 6.00 Build 0)  -->
<svg version="1.1" id="Layer_1" xmlns="http://www.w3.org/2000/svg" xmlns:xlink="http://www.w3.org/1999/xlink" x="0px"
     y="0px"
     viewBox="0 0 100 100" style="enable-background:new 0 0 100 100;" xml:space="preserve">
<path d="M78,21c-17.5-17-46.1-16.5-63.6,1l-1.8,1.8c-5.8,5.8-5.8,15.2,0,20.9c3.6,3.6,9,5.1,14,3.9l0.5-0.1
	c6.8-1.7,13.8,0.3,18.7,5.3c4.9,5,6.7,12.1,4.9,18.9c-1.2,5,0.3,10.4,3.9,14c3.1,3.1,7.1,4.6,11.2,4.6c4,0,8.1-1.5,11.2-4.6l1.6-1.6
	c8.6-8.6,13.3-20,13.2-32.2C91.6,40.9,86.7,29.5,78,21z M75.7,82.4l-1.6,1.6c-2.2,2.2-5.2,3.4-8.3,3.4c-3.2,0-6.1-1.2-8.3-3.4
	c-2.7-2.7-3.7-6.6-2.9-10.2c2.2-8.2,0-16.6-5.9-22.7C44.2,46.4,38.1,44,31.9,44c-1.9,0-3.8,0.2-5.7,0.7l-0.5,0.1
	c-3.6,0.9-7.6-0.2-10.2-2.8c-4.2-4.2-4.2-11.1,0-15.3l1.8-1.8c16-16,42-16.4,58-1c8,7.7,12.4,18.1,12.5,29.1
	C87.8,64.1,83.5,74.5,75.7,82.4z M61.6,21.6c-3.5-3.5-9.2-3.5-12.7,0c-1.7,1.7-2.6,4-2.6,6.4c0,2.4,0.9,4.7,2.6,6.4
	c1.7,1.7,4,2.6,6.4,2.6c2.4,0,4.7-0.9,6.4-2.6C65.1,30.8,65.1,25.1,61.6,21.6z M58.7,31.5c-0.9,0.9-2.2,1.5-3.5,1.5
	c-1.3,0-2.6-0.5-3.5-1.5c-0.9-0.9-1.5-2.2-1.5-3.5s0.5-2.6,1.5-3.5c1-1,2.3-1.5,3.5-1.5c1.3,0,2.6,0.5,3.5,1.5
	C60.7,26.3,60.7,29.5,58.7,31.5z M32.6,21.8c-2.4,0-4.7,0.9-6.4,2.6c-1.7,1.7-2.6,4-2.6,6.4c0,2.4,0.9,4.7,2.6,6.4
	c1.7,1.7,4,2.6,6.4,2.6c2.4,0,4.7-0.9,6.4-2.6c0,0,0,0,0,0c3.5-3.5,3.5-9.2,0-12.7C37.2,22.7,35,21.8,32.6,21.8z M36.1,34.3
	c-0.9,0.9-2.2,1.5-3.5,1.5S30,35.2,29,34.3c-0.9-0.9-1.5-2.2-1.5-3.5c0-1.3,0.5-2.6,1.5-3.5c0.9-0.9,2.2-1.5,3.5-1.5
	s2.6,0.5,3.5,1.5C38,29.2,38,32.3,36.1,34.3z M63,61.2c-3.5,3.5-3.5,9.2,0,12.7c1.8,1.8,4.1,2.6,6.4,2.6s4.6-0.9,6.4-2.6
	c3.5-3.5,3.5-9.2,0-12.7C72.2,57.7,66.5,57.7,63,61.2z M72.9,71.1c-1.9,1.9-5.1,1.9-7.1,0c-1.9-2-1.9-5.1,0-7.1c1-1,2.3-1.5,3.5-1.5
	s2.6,0.5,3.5,1.5C74.8,65.9,74.8,69.1,72.9,71.1z M78.5,38.5c-1.7-1.7-4-2.6-6.4-2.6c-2.4,0-4.7,0.9-6.4,2.6c-1.7,1.7-2.6,4-2.6,6.4
	c0,2.4,0.9,4.7,2.6,6.4c1.8,1.8,4.1,2.6,6.4,2.6s4.6-0.9,6.4-2.6C82,47.8,82,42,78.5,38.5z M75.7,48.4c-1.9,1.9-5.1,2-7.1,0
	c-0.9-0.9-1.5-2.2-1.5-3.5s0.5-2.6,1.5-3.5c0.9-0.9,2.2-1.5,3.5-1.5c1.3,0,2.6,0.5,3.5,1.5C77.6,43.3,77.6,46.5,75.7,48.4z"/>
</svg>
