<?xml version="1.0" encoding="utf-8"?>
<svg id="icons" xmlns="http://www.w3.org/2000/svg" xmlns:xlink="http://www.w3.org/1999/xlink" viewBox="0 0 49.2 48.8">
    <defs>
        <style>.cls-1.calc{fill:none;stroke:#323232;stroke-miterlimit:10;stroke-width:2px;}</style>
    </defs>
    <path class="cls-1 calc"
          d="M42.33,39.25c0,4.5-2.86,8.2-6.33,8.2H13.13c-3.48,0-6.33-3.7-6.33-8.2V9.55c0-4.5,2.86-8.2,6.33-8.2H36.07c3.48,0,6.33,3.7,6.33,8.2v29.7Z"/>
    <circle class="cls-1 calc" cx="34.63" cy="20.49" r="2.7"/>
    <circle class="cls-1 calc" cx="14.37" cy="20.49" r="2.7"/>
    <rect class="cls-1 calc" x="11.67" y="6.67" width="25.67" height="6.83"/>
    <circle class="cls-1 calc" cx="24.5" cy="20.49" r="2.7"/>
    <circle class="cls-1 calc" cx="34.63" cy="30.89" r="2.7"/>
    <circle class="cls-1 calc" cx="14.37" cy="30.89" r="2.7"/>
    <circle class="cls-1 calc" cx="34.63" cy="41.29" r="2.7"/>
    <circle class="cls-1 calc" cx="14.37" cy="41.29" r="2.7"/>
    <circle class="cls-1 calc" cx="24.5" cy="30.89" r="2.7"/>
    <circle class="cls-1 calc" cx="24.5" cy="41.29" r="2.7"/>
</svg>
