<?xml version="1.0" encoding="utf-8"?>
<!-- Generator: Adobe Illustrator 21.0.2, SVG Export Plug-In . SVG Version: 6.00 Build 0)  -->
<svg version="1.1" id="Layer_1" xmlns="http://www.w3.org/2000/svg" xmlns:xlink="http://www.w3.org/1999/xlink" x="0px"
     y="0px"
     viewBox="0 0 100 100" style="enable-background:new 0 0 100 100;" xml:space="preserve">
<path d="M83,21H17c-6.6,0-12,5.4-12,12v34c0,6.6,5.4,12,12,12h66c6.6,0,12-5.4,12-12V33C95,26.4,89.6,21,83,21z M91,67
	c0,4.4-3.6,8-8,8H17c-4.4,0-8-3.6-8-8V33c0-4.4,3.6-8,8-8h66c4.4,0,8,3.6,8,8V67z M33,37c0,1.1-0.9,2-2,2H17c-1.1,0-2-0.9-2-2
	c0-1.1,0.9-2,2-2h14C32.1,35,33,35.9,33,37z M57,39H43c-1.1,0-2-0.9-2-2c0-1.1,0.9-2,2-2h14c1.1,0,2,0.9,2,2C59,38.1,58.1,39,57,39z
	 M85,37c0,1.1-0.9,2-2,2H69c-1.1,0-2-0.9-2-2c0-1.1,0.9-2,2-2h14C84.1,35,85,35.9,85,37z M75,49c-2.2,0-4.3,0.8-6,2
	c-1.7-1.3-3.8-2-6-2c-5.5,0-10,4.5-10,10s4.5,10,10,10c2.2,0,4.3-0.8,6-2c1.7,1.3,3.8,2,6,2c5.5,0,10-4.5,10-10S80.5,49,75,49z
	 M66.3,64c-1,0.6-2.1,1-3.3,1c-3.3,0-6-2.7-6-6s2.7-6,6-6c1.2,0,2.4,0.4,3.3,1c-0.9,1.5-1.3,3.2-1.3,5S65.5,62.5,66.3,64z M75,65
	c-3.3,0-6-2.7-6-6s2.7-6,6-6s6,2.7,6,6S78.3,65,75,65z"/>
</svg>
