<?xml version="1.0" encoding="utf-8"?>
<!-- Generator: Adobe Illustrator 23.0.1, SVG Export Plug-In . SVG Version: 6.00 Build 0)  -->
<svg version="1.1" id="Layer_1" xmlns="http://www.w3.org/2000/svg" xmlns:xlink="http://www.w3.org/1999/xlink" x="0px"
     y="0px"
     viewBox="0 0 100 100" style="enable-background:new 0 0 100 100;" xml:space="preserve">
<path d="M85,5.6H15c-5.5,0-10,4.5-10,10v58c0,5.5,4.5,10,10,10h28v2c0,0.7,0.4,1.3,1,1.7c0.6,0.4,1.3,0.4,1.9,0.1l6.3-3.1l4.5,9
	c0.2,0.5,0.7,0.8,1.2,1c0.2,0.1,0.4,0.1,0.6,0.1c0.3,0,0.6-0.1,0.9-0.2l8.9-4.5c1-0.5,1.4-1.7,0.9-2.7l-1.7-3.4H85
	c5.5,0,10-4.5,10-10v-58C95,10.1,90.5,5.6,85,5.6z M59.3,89.7l-4.5-8.9c-0.4-0.7-1.1-1.1-1.8-1.1c-0.3,0-0.6,0.1-0.9,0.2L47,82.4
	V58.4l19.2,14.4l-5.2,2.6c-1,0.5-1.4,1.7-0.9,2.7l4.5,9L59.3,89.7z M91,73.6c0,3.3-2.7,6-6,6H65.5l-0.8-1.6l6.3-3.1
	c0.6-0.3,1-0.9,1.1-1.6c0.1-0.7-0.2-1.4-0.8-1.8l-25-18.8c-0.6-0.5-1.4-0.5-2.1-0.2c-0.7,0.3-1.1,1-1.1,1.8v25.3H15
	c-3.3,0-6-2.7-6-6v-44h82V73.6z M91,25.6H9v-10c0-3.3,2.7-6,6-6h70c3.3,0,6,2.7,6,6V25.6z M19,17.6c0,1.1-0.9,2-2,2s-2-0.9-2-2
	c0-1.1,0.9-2,2-2S19,16.5,19,17.6z M29,17.6c0,1.1-0.9,2-2,2s-2-0.9-2-2c0-1.1,0.9-2,2-2S29,16.5,29,17.6z M39,17.6c0,1.1-0.9,2-2,2
	s-2-0.9-2-2c0-1.1,0.9-2,2-2S39,16.5,39,17.6z M37,42.7c-0.5-1-0.1-2.2,0.9-2.7c1-0.5,2.2-0.1,2.7,0.9l1.8,3.6
	c0.5,1,0.1,2.2-0.9,2.7c-0.3,0.1-0.6,0.2-0.9,0.2c-0.7,0-1.4-0.4-1.8-1.1L37,42.7z M56.8,52.3c-0.5-1-0.1-2.2,0.9-2.7l3.6-1.8
	c1-0.5,2.2-0.1,2.7,0.9c0.5,1,0.1,2.2-0.9,2.7l-3.6,1.8c-0.3,0.1-0.6,0.2-0.9,0.2C57.9,53.5,57.2,53,56.8,52.3z M36.3,62.6
	c0.5,1,0.1,2.2-0.9,2.7l-3.6,1.8c-0.3,0.1-0.6,0.2-0.9,0.2c-0.7,0-1.4-0.4-1.8-1.1c-0.5-1-0.1-2.2,0.9-2.7l3.6-1.8
	C34.6,61.2,35.8,61.6,36.3,62.6z M48.9,44l1.3-3.8c0.3-1.1,1.5-1.6,2.5-1.3c1,0.3,1.6,1.5,1.3,2.5l-1.3,3.8
	c-0.3,0.8-1.1,1.4-1.9,1.4c-0.2,0-0.4,0-0.6-0.1C49.2,46.2,48.6,45.1,48.9,44z M28.1,51.3c0.3-1.1,1.5-1.6,2.5-1.3l3.8,1.3
	c1,0.3,1.6,1.5,1.3,2.5c-0.3,0.8-1.1,1.4-1.9,1.4c-0.2,0-0.4,0-0.6-0.1l-3.8-1.3C28.3,53.5,27.7,52.4,28.1,51.3z"/>
</svg>
