<?xml version="1.0" encoding="utf-8"?>
<!-- Generator: Adobe Illustrator 23.0.1, SVG Export Plug-In . SVG Version: 6.00 Build 0)  -->
<svg version="1.1" id="Layer_1" xmlns="http://www.w3.org/2000/svg" xmlns:xlink="http://www.w3.org/1999/xlink" x="0px"
     y="0px"
     viewBox="0 0 100 100" style="enable-background:new 0 0 100 100;" xml:space="preserve">
<path d="M93,54.5H75.9c-5.3,0-10.7,1.9-15.2,5.2l-2.3,1.8H40c-3.9,0-7,3.1-7,7c0,1.1,0.2,2.1,0.7,3c-0.9-0.1-1.8-0.3-2.5-0.8
	l-14.1-8.1c-2.3-1.7-5.3-1.9-7.8-0.7C6.6,63.3,5,65.9,5,68.8c0,2.4,1.1,4.5,2.9,6c0,0,0.1,0.1,0.1,0.1l26.8,18
	c1.7,1.1,3.6,1.7,5.6,1.7h23.4c1.8,0,3.5-0.5,5.1-1.4L81,86v2.5c0,1.1,0.9,2,2,2h10c1.1,0,2-0.9,2-2v-32C95,55.4,94.1,54.5,93,54.5z
	 M81,81.4l-14.1,8.3c-0.9,0.5-2,0.8-3,0.8H40.4c-1.2,0-2.3-0.4-3.3-1L10.3,71.6C9.5,70.9,9,69.9,9,68.8c0-1.4,0.8-2.6,2-3.2
	c1.2-0.6,2.7-0.5,3.8,0.4c0.1,0,0.2,0.1,0.2,0.2l14.2,8.1c1.5,0.9,3.2,1.3,5,1.3H65c1.1,0,2-0.9,2-2c0-1.1-0.9-2-2-2H40
	c-1.7,0-3-1.4-3-3c0-1.7,1.3-3,3-3h19c0.4,0,0.9-0.1,1.2-0.4l2.9-2.2c3.8-2.9,8.3-4.4,12.9-4.4h5V81.4z M91,86.5h-6v-28h6V86.5z
	 M30.7,40.8l18.1,14.3c0.4,0.3,0.8,0.4,1.2,0.4s0.9-0.1,1.2-0.4l18.1-14.3c11.6-9.5,10-19.5,8.7-23.4c-2.1-6.6-8-11.4-14.1-11.8
	c-0.3,0-0.7,0-1,0c-4.9,0-9.5,2-12.9,5.6c-3.3-3.5-8-5.6-12.9-5.6c-0.4,0-0.7,0-1,0c-6.2,0.4-12,5.2-14.1,11.8
	C20.7,21.2,19,31.3,30.7,40.8z M25.7,18.6c1.6-5.1,6-8.8,10.6-9.1c0.3,0,0.5,0,0.8,0c4.4,0,8.7,2.2,11.3,5.9c0.4,0.5,1,0.8,1.6,0.8
	s1.2-0.3,1.6-0.8c2.6-3.7,6.8-5.9,11.3-5.9c0.3,0,0.5,0,0.8,0c4.6,0.3,8.9,4,10.6,9.1c2.1,6.5-0.6,13.5-7.4,19.1L50,51L33.2,37.7
	C26.3,32.1,23.6,25.1,25.7,18.6z"/>
</svg>
