<svg xmlns="http://www.w3.org/2000/svg" viewBox="0 0 131.29 98.47">
    <defs>
        <style>.cls-1{fill:#b90466;}.cls-2{fill:#fff;}</style>
    </defs>
    <g id="Layer_2" data-name="Layer 2">
        <g id="Layer_1-2" data-name="Layer 1">
            <rect class="cls-1" width="131.29" height="98.47"/>
            <path class="cls-2"
                  d="M100.54,50.22H92.69a1.57,1.57,0,0,1-1.58-1.56A1.64,1.64,0,0,1,92.69,47h11.94V41.14H92.69a7.56,7.56,0,1,0,0,15.11h7.74A1.57,1.57,0,0,1,102,57.82a1.52,1.52,0,0,1-1.57,1.51H83.83c-1.4,2.69-2.77,5-5.55,6.14h22.26a7.63,7.63,0,0,0,0-15.25"/>
            <path class="cls-2"
                  d="M70.46,41.14A12.12,12.12,0,0,0,58.4,53.28V78.53h6V65.47h6a12.17,12.17,0,0,0,0-24.33m0,18.18h-6V53.25a6.06,6.06,0,1,1,6,6.07"/>
            <path class="cls-2"
                  d="M39.34,65.47a12.24,12.24,0,0,1-11.77-9.35,17.5,17.5,0,0,1-.38-2.91,18.6,18.6,0,0,1,.36-2.91,12.14,12.14,0,0,1,23.93,2.89v2.94H33.72a6.12,6.12,0,0,0,5.62,3.2h16l0-17.33a4.71,4.71,0,0,0-4.7-4.7H28a4.66,4.66,0,0,0-4.7,4.64V64.56A4.77,4.77,0,0,0,28,69.32H50.63a4.67,4.67,0,0,0,4.63-3.83H39.34Z"/>
            <path class="cls-2" d="M39.32,46.82a6.52,6.52,0,0,0-5.61,3.41H44.93a6.55,6.55,0,0,0-5.61-3.41"/>
            <path class="cls-2"
                  d="M49.57,29.93a10.25,10.25,0,0,0-20.49-.26v3.06a.71.71,0,0,0,.67.72h3.77a.75.75,0,0,0,.69-.72v-2.8a5.13,5.13,0,0,1,10.25,0v2.8a.71.71,0,0,0,.66.72h3.77a.75.75,0,0,0,.69-.72v-2.8Z"/>
        </g>
    </g>
</svg>
