<svg xmlns="http://www.w3.org/2000/svg" viewBox="0 0 131.29 98.47">
    <defs>
        <style>.cls-1{fill:#fff;}.cls-2{fill:#4285f4;}.cls-3{fill:#34a853;}.cls-4{fill:#fabb05;}.cls-5{fill:#e94235;}
        </style>
    </defs>
    <g id="Layer_2" data-name="Layer 2">
        <g id="Layer_1-2" data-name="Layer 1">
            <rect width="131.29" height="98.47"/>
            <g id="Pay_Typeface" data-name="Pay Typeface">
                <path id="Letter_p" data-name="Letter p" class="cls-1"
                      d="M62.53,48.73V59.56H59.1V32.82h9.11a8.21,8.21,0,0,1,5.88,2.31,7.71,7.71,0,0,1,0,11.31,8.2,8.2,0,0,1-5.88,2.28H62.53Zm0-12.61v9.32h5.75a4.57,4.57,0,0,0,3.4-1.38,4.51,4.51,0,0,0,1.38-3.27,4.77,4.77,0,0,0-4.78-4.65H62.53Z"/>
                <path id="Letter_a" data-name="Letter a" class="cls-1"
                      d="M85.55,40.66a8.5,8.5,0,0,1,6,2,7.23,7.23,0,0,1,2.2,5.59V59.56H90.49V57h-.15a6.54,6.54,0,0,1-5.67,3.13,7.35,7.35,0,0,1-5.06-1.79,5.71,5.71,0,0,1-2-4.47,5.4,5.4,0,0,1,2.14-4.51,9,9,0,0,1,5.73-1.68,10,10,0,0,1,5,1.12V48a3.93,3.93,0,0,0-1.42-3,4.82,4.82,0,0,0-3.32-1.25,5.22,5.22,0,0,0-4.55,2.44l-3-1.9A8.38,8.38,0,0,1,85.55,40.66ZM81.11,53.94a2.7,2.7,0,0,0,1.14,2.24,4.23,4.23,0,0,0,2.67.89,5.44,5.44,0,0,0,3.87-1.61,5.06,5.06,0,0,0,1.7-3.77A7.11,7.11,0,0,0,86,50.42a5.9,5.9,0,0,0-3.49,1A3.05,3.05,0,0,0,81.11,53.94Z"/>
                <path id="Letter_y" data-name="Letter y" class="cls-1"
                      d="M112.44,41.25,101,67.6H97.45l4.26-9.22L94.16,41.25H97.9l5.44,13.14h.07l5.29-13.14Z"/>
            </g>
            <g id="G_Mark" data-name="G Mark">
                <path id="Blue_500" data-name="Blue 500" class="cls-2"
                      d="M48.87,46.55a17.69,17.69,0,0,0-.29-3.22H34.18v5.9h8.29A7.06,7.06,0,0,1,39.39,54v3.83h4.94A15,15,0,0,0,48.87,46.55Z"/>
                <path id="Green_500" data-name="Green 500" class="cls-3"
                      d="M39.4,54a9.29,9.29,0,0,1-13.83-4.86H20.48v3.95a15.33,15.33,0,0,0,13.7,8.45,14.59,14.59,0,0,0,10.15-3.71Z"/>
                <path id="Yellow_500" data-name="Yellow 500" class="cls-4"
                      d="M25.09,46.2a9.23,9.23,0,0,1,.48-2.93v-4H20.48a15.36,15.36,0,0,0,0,13.77l5.09-4A9.29,9.29,0,0,1,25.09,46.2Z"/>
                <path id="Red_500" data-name="Red 500" class="cls-5"
                      d="M34.18,36.94a8.32,8.32,0,0,1,5.88,2.3l4.38-4.37a14.71,14.71,0,0,0-10.26-4,15.33,15.33,0,0,0-13.7,8.45l5.09,4A9.18,9.18,0,0,1,34.18,36.94Z"/>
            </g>
        </g>
    </g>
</svg>
