<svg xmlns="http://www.w3.org/2000/svg" viewBox="0 0 131.29 98.47">
    <defs>
        <style>.cls-1{fill:#fff;}.cls-2{fill:#c06;}</style>
    </defs>
    <g id="Layer_2" data-name="Layer 2">
        <g id="Layer_1-2" data-name="Layer 1">
            <rect class="cls-1" width="131.29" height="98.47"/>
            <path class="cls-1"
                  d="M35.36,26.57V72a3.92,3.92,0,0,0,3.91,3.91H66.49c20.58,0,29.44-11.46,29.44-26.7S87.07,22.53,66.49,22.53H39.4A4.25,4.25,0,0,0,35.36,26.57Z"/>
            <path class="cls-2"
                  d="M53.6,33.86V67.47H68.19c13.28,0,19-7.55,19-18.1,0-10.16-5.74-18-19-18H56.07A2.39,2.39,0,0,0,53.6,33.86Z"/>
            <path
                d="M66.49,72.42H42.92a3.78,3.78,0,0,1-3.78-3.78V30.09a3.78,3.78,0,0,1,3.78-3.78H66.49c22.41,0,25.8,14.46,25.8,23.06C92.29,64.22,83.17,72.42,66.49,72.42ZM42.92,27.61a2.47,2.47,0,0,0-2.48,2.48V68.64a2.47,2.47,0,0,0,2.48,2.48H66.49C82.26,71.12,91,63.3,91,49.24c0-18.89-15.37-21.76-24.49-21.76Z"/>
            <path class="cls-1"
                  d="M58.81,44.81a4.67,4.67,0,0,1,1.43.26,3.07,3.07,0,0,1,1.17.78L62.2,47a6.59,6.59,0,0,1,.26,1.69,4.87,4.87,0,0,1-.26,1.57,4.08,4.08,0,0,1-.66,1.3,2.83,2.83,0,0,1-1.17.91,3,3,0,0,1-1.56.26H55.29V44.68Zm-.13,6.51a1.65,1.65,0,0,0,.78-.13c.26-.13.39-.26.65-.39s.39-.39.39-.78a2.91,2.91,0,0,0,.13-1.18,2.53,2.53,0,0,0-.13-1,4.33,4.33,0,0,0-.39-.78,1.3,1.3,0,0,0-.65-.52,2.53,2.53,0,0,0-1-.13h-1.3v5.08Z"/>
            <path class="cls-1" d="M69.62,44.81v1.43h-4.3v1.82h3.91v1.31H65.32v2h4.3v1.43H63.5V44.68Z"/>
            <path class="cls-1" d="M75.61,44.81l3,8.07H76.78l-.65-1.82h-3l-.65,1.82H70.66l3-8.07Zm.13,4.95-1-3-1,3Z"/>
            <path class="cls-1" d="M81.47,44.81v6.51h3.91v1.43H79.65V44.68A9.21,9.21,0,0,0,81.47,44.81Z"/>
            <path d="M47,52.49a3.65,3.65,0,1,0-3.65-3.65A3.64,3.64,0,0,0,47,52.49Z"/>
            <path d="M49.82,67.47a5.55,5.55,0,0,1-5.6-5.6V57.44a2.87,2.87,0,0,1,5.73,0Z"/>
        </g>
    </g>
</svg>
