<svg id="Layer_1" data-name="Layer 1" xmlns="http://www.w3.org/2000/svg" viewBox="0 0 444.44 79.88">
    <defs>
        <style>.cls-1{fill:#29dec7;}.cls-1,.cls-3{fill-rule:evenodd;}.cls-2{fill:#f66;}.cls-3,.cls-4{fill:#244554;}
        </style>
    </defs>
    <title>involve.me logo</title>
    <path class="cls-1" d="M38.6,10.06A29.82,29.82,0,1,1,8.78,39.88,29.82,29.82,0,0,1,38.6,10.06"
          transform="translate(-8.78 -10.06)"/>
    <rect class="cls-2" x="29.85" y="29.93" width="49.95" height="49.95"/>
    <path class="cls-3" d="M68.42,40A29.82,29.82,0,0,1,38.63,69.7V40Z" transform="translate(-8.78 -10.06)"/>
    <path class="cls-4"
          d="M427.68,54.29A7.48,7.48,0,0,1,429,51a7.73,7.73,0,0,1,2.64-2.32,7.4,7.4,0,0,1,3.51-.87,6.88,6.88,0,0,1,3.35.89A7.18,7.18,0,0,1,440.95,51a7,7,0,0,1,1.13,3.24Zm-78.08,22a1.9,1.9,0,0,0,1.81,1.81h7.72a1.9,1.9,0,0,0,1.81-1.81v-21a11.33,11.33,0,0,1,1-2,9.46,9.46,0,0,1,1.59-1.94,7.74,7.74,0,0,1,2.3-1.46,8.56,8.56,0,0,1,3.13-.57,7.24,7.24,0,0,1,4,1,5.84,5.84,0,0,1,2.32,2.79,11.06,11.06,0,0,1,.75,4.3V76.29a1.82,1.82,0,0,0,.51,1.26,1.78,1.78,0,0,0,1.3.56H385a1.82,1.82,0,0,0,1.27-.56,1.79,1.79,0,0,0,.54-1.26V57c0-.59,0-1.16,0-1.7s0-1,0-1.37,0-.54,0-.55a5.77,5.77,0,0,1,.48-.62,8.83,8.83,0,0,1,1.46-1.38A9.38,9.38,0,0,1,391.11,50a10,10,0,0,1,3.57-.62,7.33,7.33,0,0,1,4,1A6,6,0,0,1,401,53.13a10.47,10.47,0,0,1,.79,4.3V76.29a1.89,1.89,0,0,0,.51,1.26,1.81,1.81,0,0,0,1.3.56h7.72a1.78,1.78,0,0,0,1.3-.56,1.82,1.82,0,0,0,.51-1.26V58.1a27.18,27.18,0,0,0-.89-7.19,17.62,17.62,0,0,0-2.87-6.08,13.62,13.62,0,0,0-5.16-4.21A17.77,17.77,0,0,0,396.49,39a16.74,16.74,0,0,0-4.76.68,19.57,19.57,0,0,0-3.92,1.62,21.15,21.15,0,0,0-2.92,2,17.72,17.72,0,0,0-1.83,1.65,16.17,16.17,0,0,0-5.33-4.38A15.39,15.39,0,0,0,370.67,39a17.27,17.27,0,0,0-11,4,15.47,15.47,0,0,0-1.73,1.64L356.56,41a1.49,1.49,0,0,0-.56-.75,1.87,1.87,0,0,0-1.06-.3h-3.52a1.81,1.81,0,0,0-1.81,1.81Zm-43.33-22A7.46,7.46,0,0,1,307.56,51a7.71,7.71,0,0,1,2.64-2.32,7.39,7.39,0,0,1,3.51-.87,6.88,6.88,0,0,1,3.35.89A7.17,7.17,0,0,1,319.54,51a7,7,0,0,1,1.13,3.24ZM294.56,59A21.18,21.18,0,0,0,296,66.8a19.83,19.83,0,0,0,4,6.37,18.85,18.85,0,0,0,6.18,4.3,19.85,19.85,0,0,0,7.88,1.59,23.34,23.34,0,0,0,5.73-.7,20.05,20.05,0,0,0,4.77-1.87,17.68,17.68,0,0,0,3.7-2.67,1.55,1.55,0,0,0,.65-1.27,1.76,1.76,0,0,0-.55-1.21l-3.91-4.48a1.36,1.36,0,0,0-1.13-.51,3.16,3.16,0,0,0-1.35.51,13.38,13.38,0,0,1-7.43,2.38,9.23,9.23,0,0,1-3.72-.75A8.69,8.69,0,0,1,308,66.56a8.86,8.86,0,0,1-1.83-2.67,8.76,8.76,0,0,1-.78-2.94h24.39A1.87,1.87,0,0,0,331,60.5a1.74,1.74,0,0,0,.62-1.16c0-.37.1-.79.13-1.29s.06-.94.06-1.29a18.52,18.52,0,0,0-1.4-7.11A17.22,17.22,0,0,0,326.59,44a17.56,17.56,0,0,0-5.67-3.69A18.53,18.53,0,0,0,314,39a19,19,0,0,0-7.81,1.62A18.63,18.63,0,0,0,300,45a20,20,0,0,0-4,6.37A20.88,20.88,0,0,0,294.56,59Zm-20,19.06a1.94,1.94,0,0,0,.6.65,1.74,1.74,0,0,0,1,.3h.48a1.84,1.84,0,0,0,1-.3,2.06,2.06,0,0,0,.59-.65l17.44-35.83a1.65,1.65,0,0,0,.13-1.6,1.56,1.56,0,0,0-1.46-.68h-7.43a3.91,3.91,0,0,0-1.35.16,1.68,1.68,0,0,0-.94.89l-8.2,17.72h-.19L268.53,41a2,2,0,0,0-.6-.75,1.89,1.89,0,0,0-1.11-.3h-8.29a1.46,1.46,0,0,0-1.41.68,1.75,1.75,0,0,0,.08,1.6Zm-32.15-1.81a1.75,1.75,0,0,0,.55,1.26,1.8,1.8,0,0,0,1.26.56h8a1.78,1.78,0,0,0,1.25-.56,1.73,1.73,0,0,0,.56-1.26V21.79a1.77,1.77,0,0,0-.56-1.27,1.72,1.72,0,0,0-1.25-.54h-8a1.74,1.74,0,0,0-1.26.54,1.78,1.78,0,0,0-.55,1.27ZM210.35,59a10.22,10.22,0,0,1,1.22-4.88,9.32,9.32,0,0,1,3.27-3.45,8.91,8.91,0,0,1,9.27,0,9.46,9.46,0,0,1,3.27,3.45A9.88,9.88,0,0,1,228.65,59a10.15,10.15,0,0,1-1.25,5,9.59,9.59,0,0,1-3.27,3.53,8.73,8.73,0,0,1-9.27,0,9.44,9.44,0,0,1-3.27-3.53A10.5,10.5,0,0,1,210.35,59ZM200,59a20.11,20.11,0,0,0,1.54,7.76,20.38,20.38,0,0,0,4.19,6.4,19.74,19.74,0,0,0,6.21,4.33,18.75,18.75,0,0,0,15.18,0,19.73,19.73,0,0,0,6.21-4.33,20.31,20.31,0,0,0,4.19-6.4A20.09,20.09,0,0,0,239,59a20.1,20.1,0,0,0-5.73-14,19.43,19.43,0,0,0-6.21-4.32,18.78,18.78,0,0,0-15.18,0A19.44,19.44,0,0,0,205.7,45a19.91,19.91,0,0,0-4.19,6.34A19.68,19.68,0,0,0,200,59ZM180,78.11a1.94,1.94,0,0,0,.6.65,1.75,1.75,0,0,0,1,.3h.48a1.84,1.84,0,0,0,1-.3,2.08,2.08,0,0,0,.59-.65l17.44-35.83a1.64,1.64,0,0,0,.13-1.6,1.56,1.56,0,0,0-1.46-.68h-7.43a3.89,3.89,0,0,0-1.35.16,1.68,1.68,0,0,0-.94.89l-8.2,17.72h-.19L174,41a2,2,0,0,0-.6-.75,1.89,1.89,0,0,0-1.11-.3H164a1.46,1.46,0,0,0-1.41.68,1.76,1.76,0,0,0,.08,1.6Zm-55.62-1.81a1.91,1.91,0,0,0,1.81,1.81h7.05a3.1,3.1,0,0,0,1.87-.41,1.62,1.62,0,0,0,.51-1.4v-21a8.29,8.29,0,0,1,1.11-2,10.08,10.08,0,0,1,1.86-1.94,9.81,9.81,0,0,1,2.64-1.46,10.05,10.05,0,0,1,3.35-.57,7.21,7.21,0,0,1,3.89,1,6.13,6.13,0,0,1,2.41,2.79,10.22,10.22,0,0,1,.84,4.3V76.29a1.83,1.83,0,0,0,.51,1.26,1.78,1.78,0,0,0,1.3.56h7.81a1.82,1.82,0,0,0,1.27-.56,1.77,1.77,0,0,0,.54-1.26V58a25.79,25.79,0,0,0-1-7.15,18,18,0,0,0-3-6.05A14.07,14.07,0,0,0,154,40.61,18,18,0,0,0,146.23,39a18.49,18.49,0,0,0-5,.66,19.28,19.28,0,0,0-3.94,1.57,18.38,18.38,0,0,0-2.84,1.86,17.58,17.58,0,0,0-1.67,1.52l-1.34-3.53a2.12,2.12,0,0,0-.59-.83,1.64,1.64,0,0,0-1-.32h-3.62a1.81,1.81,0,0,0-1.25.51,1.79,1.79,0,0,0-.56,1.3Zm-17.17,0a1.91,1.91,0,0,0,1.81,1.81H117a1.9,1.9,0,0,0,1.81-1.81V41.8a1.8,1.8,0,0,0-.56-1.3A1.82,1.82,0,0,0,117,40h-7.91a1.81,1.81,0,0,0-1.81,1.81Zm5.62-43.16a6.7,6.7,0,0,0,5.77-3.26,6.54,6.54,0,0,0,0-6.64,6.56,6.56,0,0,0-2.38-2.35,6.64,6.64,0,0,0-3.38-.91,6.3,6.3,0,0,0-3.29.91,6.61,6.61,0,0,0,0,11.34A6.25,6.25,0,0,0,112.87,33.13ZM339,79.06a6.71,6.71,0,0,0,5.77-3.25,6.55,6.55,0,0,0,0-6.64,6.57,6.57,0,0,0-2.38-2.35,6.64,6.64,0,0,0-3.38-.91,6.3,6.3,0,0,0-3.29.91,6.61,6.61,0,0,0,0,11.34A6.25,6.25,0,0,0,339,79.06Zm77-20a21.21,21.21,0,0,0,1.45,7.75,19.82,19.82,0,0,0,4,6.37,18.83,18.83,0,0,0,6.18,4.3,19.85,19.85,0,0,0,7.88,1.59,23.35,23.35,0,0,0,5.73-.7A20,20,0,0,0,446,76.49a17.64,17.64,0,0,0,3.7-2.67,1.56,1.56,0,0,0,.65-1.27,1.75,1.75,0,0,0-.56-1.21l-3.91-4.48a1.37,1.37,0,0,0-1.13-.51,3.17,3.17,0,0,0-1.35.51A13.38,13.38,0,0,1,436,69.25a9.23,9.23,0,0,1-3.71-.75,8.67,8.67,0,0,1-2.83-1.94,8.87,8.87,0,0,1-1.83-2.67,8.69,8.69,0,0,1-.78-2.94h24.39a1.87,1.87,0,0,0,1.19-.46,1.75,1.75,0,0,0,.62-1.16c0-.37.09-.79.13-1.29s.06-.94.06-1.29a18.5,18.5,0,0,0-1.4-7.11A17.21,17.21,0,0,0,448,44a17.56,17.56,0,0,0-5.67-3.69A18.52,18.52,0,0,0,435.4,39a19,19,0,0,0-7.81,1.62A18.66,18.66,0,0,0,421.43,45a20,20,0,0,0-4,6.37A20.9,20.9,0,0,0,416,59Z"
          transform="translate(-8.78 -10.06)"/>
</svg>
