<svg xmlns="http://www.w3.org/2000/svg" viewBox="0 0 175 131.25">
    <defs>
        <style>.cls-1,.cls-2{fill:#fff;}.cls-1{fill-rule:evenodd;}</style>
    </defs>
    <g id="Layer_2" data-name="Layer 2">
        <g id="Layer_1-2" data-name="Layer 1">
            <rect width="175" height="131.25"/>
            <path class="cls-1"
                  d="M80,58a9.64,9.64,0,1,0,9.64,9.64A9.65,9.65,0,0,0,80,58Zm0,14.72A5.07,5.07,0,1,1,85.1,67.6,5.08,5.08,0,0,1,80,72.67Z"/>
            <path class="cls-2" d="M112.1,54.61a3,3,0,1,0-3-3A3,3,0,0,0,112.1,54.61Z"/>
            <path class="cls-1"
                  d="M60.35,58c-.25,0-.49,0-.74,0a8.35,8.35,0,0,0-6.11,2.64,8.36,8.36,0,0,0-14.45,5.72V76.84h4.51V66.42A4,4,0,0,1,47,62.55l.38,0a3.81,3.81,0,0,1,3.8,3.79V76.84h4.61V66.4a4,4,0,0,1,3.43-3.86l.38,0a3.81,3.81,0,0,1,3.81,3.77V76.84H68V66.42a8.51,8.51,0,0,0-2.2-5.72A8.17,8.17,0,0,0,60.35,58Z"/>
            <path class="cls-2" d="M96.77,49.05H92.16V76.86h4.61Z"/>
            <path class="cls-2" d="M105.59,49.05H101V76.86h4.61Z"/>
            <path class="cls-2" d="M114.41,58.41H109.8V76.85h4.61Z"/>
            <path class="cls-1"
                  d="M136,67.16a9.21,9.21,0,0,0-2.67-6.5,9,9,0,0,0-6.46-2.73h-.12a9.65,9.65,0,0,0,.13,19.29h0a9.69,9.69,0,0,0,8.3-4.73l.22-.37-3.81-1.87-.19.31a5.19,5.19,0,0,1-9.43-1.29h14Zm-9.31-5a4.93,4.93,0,0,1,4.65,3.35H122A4.92,4.92,0,0,1,126.64,62.12Z"/>
        </g>
    </g>
</svg>
