<?xml version="1.0" encoding="utf-8"?>
<!-- Generator: Adobe Illustrator 21.0.2, SVG Export Plug-In . SVG Version: 6.00 Build 0)  -->
<svg version="1.1" id="Layer_1" xmlns="http://www.w3.org/2000/svg" xmlns:xlink="http://www.w3.org/1999/xlink" x="0px"
     y="0px"
     viewBox="0 0 100 100" style="enable-background:new 0 0 100 100;" xml:space="preserve">
<path d="M94,5H6C4.9,5,4,5.9,4,7v86c0,1.1,0.9,2,2,2h88c1.1,0,2-0.9,2-2V7C96,5.9,95.1,5,94,5z M92,17H64V9h28V17z M60,9v8H8V9H60z
	 M8,91V21h84v70H8z M84,13.4c0-0.1,0-0.3,0-0.4c0-0.1,0-0.3,0-0.4c0-0.1,0.1-0.2,0.1-0.4c0.1-0.1,0.1-0.2,0.2-0.3
	c0.1-0.1,0.2-0.2,0.2-0.3c0.1-0.1,0.2-0.2,0.3-0.2c0.1-0.1,0.2-0.1,0.3-0.2c0.1-0.1,0.2-0.1,0.4-0.1c0.7-0.1,1.3,0.1,1.8,0.5
	c0.1,0.1,0.2,0.2,0.2,0.3c0.1,0.1,0.1,0.2,0.2,0.3c0,0.1,0.1,0.2,0.1,0.4c0,0.1,0,0.3,0,0.4c0,0.1,0,0.3,0,0.4
	c0,0.1-0.1,0.2-0.1,0.4c0,0.1-0.1,0.2-0.2,0.4c-0.1,0.1-0.2,0.2-0.2,0.3C87,14.8,86.5,15,86,15s-1-0.2-1.4-0.6
	c-0.1-0.1-0.2-0.2-0.2-0.3c-0.1-0.1-0.1-0.2-0.2-0.4C84.1,13.6,84.1,13.5,84,13.4z M76.6,14.4C76.2,14,76,13.5,76,13
	c0-0.5,0.2-1,0.6-1.4c0.1-0.1,0.2-0.2,0.3-0.2c0.1-0.1,0.2-0.1,0.3-0.2c0.1-0.1,0.2-0.1,0.4-0.1c0.3-0.1,0.5-0.1,0.8,0
	c0.1,0,0.2,0.1,0.4,0.1c0.1,0,0.2,0.1,0.3,0.2c0.1,0.1,0.2,0.1,0.3,0.2C79.8,12,80,12.5,80,13c0,0.5-0.2,1-0.6,1.4
	c-0.1,0.1-0.2,0.2-0.3,0.2c-0.1,0.1-0.2,0.1-0.3,0.2c-0.1,0.1-0.2,0.1-0.4,0.1c-0.1,0-0.3,0-0.4,0s-0.3,0-0.4,0
	c-0.1,0-0.3-0.1-0.4-0.1c-0.1,0-0.2-0.1-0.3-0.2C76.8,14.6,76.7,14.5,76.6,14.4z M68,13c0-0.5,0.2-1,0.6-1.4c0.7-0.8,2.1-0.8,2.8,0
	C71.8,12,72,12.5,72,13c0,0.5-0.2,1-0.6,1.4c-0.1,0.1-0.2,0.2-0.3,0.2c-0.1,0.1-0.2,0.1-0.3,0.2c-0.1,0.1-0.2,0.1-0.4,0.1
	c-0.1,0-0.3,0-0.4,0c-0.5,0-1-0.2-1.4-0.6C68.2,14,68,13.5,68,13z M35.2,42.6L17.3,56l17.9,13.4c0.9,0.7,1.1,1.9,0.4,2.8
	c-0.4,0.5-1,0.8-1.6,0.8c-0.4,0-0.8-0.1-1.2-0.4l-20-15c-0.5-0.4-0.8-1-0.8-1.6s0.3-1.2,0.8-1.6l20-15c0.9-0.7,2.1-0.5,2.8,0.4
	C36.3,40.7,36.1,41.9,35.2,42.6z M88,56c0,0.6-0.3,1.2-0.8,1.6l-20,15C66.8,72.9,66.4,73,66,73c-0.6,0-1.2-0.3-1.6-0.8
	c-0.7-0.9-0.5-2.1,0.4-2.8L82.7,56L64.8,42.6c-0.9-0.7-1.1-1.9-0.4-2.8c0.7-0.9,1.9-1.1,2.8-0.4l20,15C87.7,54.8,88,55.4,88,56z
	 M61.7,42.1l-20,30c-0.4,0.6-1,0.9-1.7,0.9c-0.4,0-0.8-0.1-1.1-0.3c-0.9-0.6-1.2-1.9-0.6-2.8l20-30c0.6-0.9,1.9-1.2,2.8-0.6
	C62,39.9,62.3,41.2,61.7,42.1z"/>
</svg>
