<?xml version="1.0" encoding="utf-8"?>
<!-- Generator: Adobe Illustrator 23.0.1, SVG Export Plug-In . SVG Version: 6.00 Build 0)  -->
<svg version="1.1" id="Layer_1" xmlns="http://www.w3.org/2000/svg" xmlns:xlink="http://www.w3.org/1999/xlink" x="0px"
     y="0px"
     viewBox="0 0 100 100" style="enable-background:new 0 0 100 100;" xml:space="preserve">
<path d="M87,8H13c-4.41,0-8,3.59-8,8v54v5c0,3.86,3.14,7,7,7h28v6h-8c-1.1,0-2,0.9-2,2s0.9,2,2,2h36c1.1,0,2-0.9,2-2s-0.9-2-2-2h-8
	v-6h28c3.86,0,7-3.14,7-7v-5V16C95,11.59,91.41,8,87,8z M9,16c0-2.21,1.79-4,4-4h74c2.21,0,4,1.79,4,4v52H9V16z M56,88H44v-6h12V88z
	 M91,75c0,1.65-1.35,3-3,3H12c-1.65,0-3-1.35-3-3v-3h82V75z M71,27H31v-3c0-3.31-2.69-6-6-6h-2c-1.1,0-2,0.9-2,2s0.9,2,2,2h2
	c1.1,0,2,0.9,2,2v5v22c0,1.1,0.9,2,2,2h5.81C34.3,53.88,34,54.91,34,56c0,3.31,2.69,6,6,6s6-2.69,6-6c0-1.09-0.3-2.12-0.81-3h9.62
	C54.3,53.88,54,54.91,54,56c0,3.31,2.69,6,6,6s6-2.69,6-6c0-1.09-0.3-2.12-0.81-3H71c1.1,0,2-0.9,2-2V29C73,27.9,72.1,27,71,27z
	 M69,38H59v-7h10V38z M45,49v-7h10v7H45z M45,38v-7h10v7H45z M31,31h10v7H31V31z M31,42h10v7H31V42z M40,58c-1.1,0-2-0.9-2-2
	s0.9-2,2-2s2,0.9,2,2S41.1,58,40,58z M60,58c-1.1,0-2-0.9-2-2s0.9-2,2-2s2,0.9,2,2S61.1,58,60,58z M59,49v-7h10v7H59z"/>
</svg>
