<?xml version="1.0" encoding="utf-8"?>
<!-- Generator: Adobe Illustrator 23.0.1, SVG Export Plug-In . SVG Version: 6.00 Build 0)  -->
<svg version="1.1" id="Layer_1" xmlns="http://www.w3.org/2000/svg" xmlns:xlink="http://www.w3.org/1999/xlink" x="0px"
     y="0px"
     viewBox="0 0 100 100" style="enable-background:new 0 0 100 100;" xml:space="preserve">
<path d="M88,81h-3.7c0.4-0.9,0.7-1.9,0.7-3c0-3.9-3.1-7-7-7H61.2L44.5,52.9C42.3,50.4,39,49,35.7,49H11c-3.3,0-6,2.7-6,6v18
	c0,3.3,2.7,6,6,6h9.4c1.3,0,2.5,0.4,3.5,1.1l17.8,12.9c1.7,1.2,3.8,1.9,5.9,1.9H88c3.9,0,7-3.1,7-7S91.9,81,88,81z M78,75
	c1.7,0,3,1.3,3,3c0,1.6-1.3,3-3,3H64.5c0.3-0.7,0.6-1.5,0.6-2.3c0.1-1.3-0.1-2.5-0.7-3.7H78z M15,75h-4c-1.1,0-2-0.9-2-2V55
	c0-1.1,0.9-2,2-2h4V75z M88,91H47.6c-1.3,0-2.5-0.4-3.5-1.2L26.3,76.9c-1.7-1.2-3.8-1.9-5.9-1.9H19V53h16.7c2.2,0,4.4,0.9,5.9,2.6
	L60.4,76c0.6,0.6,0.9,1.4,0.8,2.3c-0.1,0.8-0.5,1.6-1.2,2.1c-1.2,0.9-3,0.7-4.2-0.5l-18-19.5c-0.8-0.8-2-0.9-2.8-0.1
	c-0.4,0.4-0.6,0.9-0.6,1.5c0,0.5,0.2,1,0.5,1.3l17.9,19.5c1.3,1.4,3,2.2,4.7,2.3c0.1,0,0.3,0,0.4,0h30c1.7,0,3,1.3,3,3
	C91,89.6,89.7,91,88,91z M89,5H25c-3.3,0-6,2.7-6,6v26c0,3.3,2.7,6,6,6h64c3.3,0,6-2.7,6-6V11C95,7.7,92.3,5,89,5z M23,11
	c0-1.1,0.9-2,2-2h5.8c-0.8,3.9-3.9,7-7.8,7.8V11z M25,39c-1.1,0-2-0.9-2-2v-5.8c3.9,0.8,7,3.9,7.8,7.8H25z M91,37c0,1.1-0.9,2-2,2
	h-5.8c0.8-3.9,3.9-7,7.8-7.8V37z M91,27.2C84.9,28,80,32.9,79.2,39H34.8C34,32.9,29.1,28,23,27.2v-6.3C29.1,20,34,15.1,34.8,9h44.3
	C80,15.1,84.9,20,91,20.8V27.2z M91,16.8c-3.9-0.8-7-3.9-7.8-7.8H89c1.1,0,2,0.9,2,2V16.8z M57,15c-5,0-9,4-9,9c0,5,4,9,9,9s9-4,9-9
	C66,19,62,15,57,15z M57,29c-2.8,0-5-2.2-5-5s2.2-5,5-5s5,2.2,5,5S59.8,29,57,29z"/>
</svg>
