<svg xmlns="http://www.w3.org/2000/svg" viewBox="0 0 175 131.25">
    <defs>
        <style>
            .cls-1{fill:#0071c0;}.cls-2{fill:#99c6e5;}.cls-2,.cls-3,.cls-4{fill-rule:evenodd;}.cls-3{fill:#fff;}.cls-4{fill:#cce2f2;}
        </style>
    </defs>
    <g id="Layer_2" data-name="Layer 2">
        <g id="Layer_1-2" data-name="Layer 1">
            <rect class="cls-1" width="175" height="131.25"/>
            <path class="cls-2"
                  d="M31.54,55.34h9.38c5,0,6.94,2.55,6.64,6.31-.48,6.18-4.22,9.6-9.18,9.6h-2.5c-.68,0-1.14.45-1.33,1.67L33.48,80a.79.79,0,0,1-.68.77H26.92c-.55,0-.75-.43-.6-1.34l3.59-22.75A1.43,1.43,0,0,1,31.54,55.34Z"/>
            <path class="cls-3"
                  d="M72.27,54.92c3.17,0,6.09,1.72,5.69,6-.48,5.08-3.21,7.9-7.51,7.91H66.69c-.54,0-.8.44-.94,1.35L65,74.8c-.11.69-.47,1-1,1H60.54c-.56,0-.75-.36-.63-1.16L62.8,56.17c.14-.91.49-1.25,1.11-1.25Zm-5.69,9.91h2.84c1.78-.06,3-1.3,3.09-3.52A2.16,2.16,0,0,0,70.18,59H67.5l-.92,5.86Zm20.87,9.59c.32-.29.65-.44.6-.09l-.11.86c-.06.45.12.69.53.69h3.11c.52,0,.78-.21.9-1l1.92-12c.09-.6-.05-.9-.51-.9H90.48c-.31,0-.46.18-.54.65l-.13.74c-.06.38-.24.45-.4.06-.58-1.37-2.06-2-4.13-1.94-4.79.09-8,3.73-8.36,8.39a5.76,5.76,0,0,0,5.72,6.43,6.14,6.14,0,0,0,4.81-1.86Zm-2.59-1.85a3.12,3.12,0,0,1-3.2-3.66A4.45,4.45,0,0,1,86,65.26a3.11,3.11,0,0,1,3.19,3.65,4.45,4.45,0,0,1-4.28,3.66Zm15.62-10.66H97.34c-.65,0-.91.48-.71,1.09l3.91,11.44-3.85,5.44c-.32.46-.07.87.38.87h3.54a1.08,1.08,0,0,0,1-.51l12-17.24c.37-.54.2-1.09-.41-1.09h-3.35c-.57,0-.8.23-1.13.71l-5,7.27-2.24-7.28A1,1,0,0,0,100.48,61.91Z"/>
            <path class="cls-2"
                  d="M126.19,54.92c3.17,0,6.09,1.72,5.69,6-.48,5.08-3.21,7.9-7.51,7.91h-3.76c-.54,0-.8.44-.94,1.35L119,74.8c-.11.69-.47,1-1,1h-3.49c-.56,0-.75-.36-.63-1.16l2.89-18.51c.14-.91.49-1.25,1.11-1.25Zm-5.69,9.91h2.84c1.78-.06,3-1.3,3.09-3.52A2.16,2.16,0,0,0,124.1,59h-2.68l-.92,5.86Zm20.87,9.59c.32-.29.65-.44.6-.09l-.11.86c-.06.45.12.69.53.69h3.11c.52,0,.78-.21.91-1l1.91-12c.09-.6,0-.9-.51-.9H144.4c-.31,0-.46.18-.54.65l-.13.74c-.06.38-.24.45-.4.06-.58-1.37-2.06-2-4.13-1.94-4.79.09-8,3.73-8.36,8.39a5.76,5.76,0,0,0,5.72,6.43,6.14,6.14,0,0,0,4.81-1.86Zm-2.59-1.85a3.12,3.12,0,0,1-3.2-3.66,4.45,4.45,0,0,1,4.29-3.65,3.11,3.11,0,0,1,3.19,3.65,4.45,4.45,0,0,1-4.28,3.66ZM153.1,75.9h-3.59a.43.43,0,0,1-.44-.5l3.15-19.94a.63.63,0,0,1,.6-.49h3.58a.41.41,0,0,1,.44.49L153.69,75.4A.61.61,0,0,1,153.1,75.9Z"/>
            <path class="cls-3"
                  d="M25.68,47.52h9.39c2.64,0,5.78.08,7.88,1.93a6.37,6.37,0,0,1,2,5.32C44.34,62,40.05,66,34.3,66H29.67c-.79,0-1.31.52-1.54,1.94l-1.29,8.22c-.08.54-.31.85-.74.89H20.32c-.64,0-.87-.49-.7-1.56l4.16-26.37A1.67,1.67,0,0,1,25.68,47.52Z"/>
            <path class="cls-4"
                  d="M28.27,67.07l1.64-10.38a1.43,1.43,0,0,1,1.63-1.35h9.38a9.23,9.23,0,0,1,3.79.69C43.77,62.42,39.64,66,34.24,66H29.61A1.36,1.36,0,0,0,28.27,67.07Z"/>
        </g>
    </g>
</svg>
