<svg xmlns="http://www.w3.org/2000/svg" viewBox="0 0 131.29 98.47">
    <defs>
        <style>.cls-1{fill:#0071c0;}.cls-2{fill:#99c6e5;}.cls-3{fill:#cce2f2;}.cls-4{fill:#fff;}</style>
    </defs>
    <g id="Layer_2" data-name="Layer 2">
        <g id="Layer_1-2" data-name="Layer 1">
            <rect class="cls-1" width="131.29" height="98.47"/>
            <path class="cls-2"
                  d="M82.78,35.82c0,.29-.09.58-.15.88C80.71,47,74.15,50.49,65.77,50.49H61.5a2.11,2.11,0,0,0-2,1.83L57.27,66.74l-.62,4.08a1.13,1.13,0,0,0,1.08,1.32H65.3a1.84,1.84,0,0,0,1.79-1.6l.08-.4,1.42-9.41.09-.52a1.85,1.85,0,0,1,1.8-1.6h1.14c7.33,0,13.07-3.09,14.75-12.06.7-3.74.33-6.87-1.52-9.07A7.39,7.39,0,0,0,82.78,35.82Z"/>
            <path class="cls-3"
                  d="M80.77,35l-.9-.24-1-.19a23.24,23.24,0,0,0-3.77-.28H63.74a1.72,1.72,0,0,0-.78.18,1.87,1.87,0,0,0-1,1.42l-2.43,16-.07.47a2.11,2.11,0,0,1,2-1.83h4.27c8.38,0,14.94-3.54,16.86-13.79.06-.3.1-.59.15-.88a9.42,9.42,0,0,0-1.58-.69Z"/>
            <path class="cls-4"
                  d="M62,35.87a1.86,1.86,0,0,1,1-1.41,1.73,1.73,0,0,1,.78-.19h11.4a22.12,22.12,0,0,1,3.77.29c.33,0,.64.11,1,.18l.9.25.43.14a9.42,9.42,0,0,1,1.58.69c.57-3.79,0-6.37-2-8.7-2.17-2.57-6.09-3.67-11.1-3.67H55.17a2.1,2.1,0,0,0-2.06,1.82l-6,40a1.29,1.29,0,0,0,1.23,1.51h9l2.25-14.89Z"/>
        </g>
    </g>
</svg>
