<?xml version="1.0" encoding="utf-8"?>
<!-- Generator: Adobe Illustrator 23.0.1, SVG Export Plug-In . SVG Version: 6.00 Build 0)  -->
<svg version="1.1" id="Layer_1" xmlns="http://www.w3.org/2000/svg" xmlns:xlink="http://www.w3.org/1999/xlink" x="0px"
     y="0px"
     viewBox="0 0 100 100" style="enable-background:new 0 0 100 100;" xml:space="preserve">
<path d="M81,5H19C11.28,5,5,11.28,5,19v62c0,7.72,6.28,14,14,14h62c7.72,0,14-6.28,14-14V19C95,11.28,88.72,5,81,5z M91,81
	c0,5.51-4.49,10-10,10H19c-5.51,0-10-4.49-10-10V19c0-5.51,4.49-10,10-10h62c5.51,0,10,4.49,10,10V81z M83,81c0,1.1-0.9,2-2,2H19
	c-1.1,0-2-0.9-2-2V19c0-1.1,0.9-2,2-2s2,0.9,2,2v60h60C82.1,79,83,79.9,83,81z M29.35,67.88l14.89-21.9c1.77-2.61,5.29-3.4,8-1.8
	l10.58,6.22c0.9,0.53,2.06,0.27,2.66-0.58l13.88-19.96c0.63-0.9,1.88-1.13,2.78-0.5c0.91,0.63,1.13,1.88,0.5,2.78L68.76,52.1
	c-1.78,2.56-5.28,3.33-7.97,1.75l-10.58-6.22c-0.9-0.53-2.08-0.27-2.67,0.6l-14.89,21.9C32.27,70.69,31.64,71,31,71
	c-0.39,0-0.78-0.11-1.12-0.35C28.96,70.03,28.73,68.79,29.35,67.88z"/>
</svg>
