<svg xmlns="http://www.w3.org/2000/svg" viewBox="0 0 131.29 98.47">
    <defs>
        <style>.cls-1{fill:#112a84;}.cls-2{fill:#fff;}.cls-3{fill:#eeba40;}</style>
    </defs>
    <g id="Layer_2" data-name="Layer 2">
        <g id="Layer_1-2" data-name="Layer 1">
            <rect class="cls-1" width="131.29" height="98.47"/>
            <path class="cls-2"
                  d="M95.7,61.94H88.85c.14-.57.23-1.07.37-1.54,2.25-7.59,4.53-15.18,6.75-22.78.27-.93.64-1.26,1.64-1.23,3,.07,5.94,0,9,0,2.56,8.5,5.1,17,7.7,25.58-2.23,0-4.25,0-6.27,0-.27,0-.56-.33-.79-.56s-.13-.35-.19-.53c-1-3.26-1-3.26-4.34-3.26-1.51,0-3,.08-4.53,0-1.08-.08-1.5.35-1.69,1.35S96,60.93,95.7,61.94Zm9.08-9.4c-1.07-3.62-2.09-7.09-3.11-10.56l-.27,0-3,10.52Z"/>
            <path class="cls-2"
                  d="M75.12,55.06v6.83H68.34V36.53a5.55,5.55,0,0,1,.76-.11c4.39,0,8.78,0,13.17,0,4.78.08,7.26,2.39,7.52,7.17a31.87,31.87,0,0,1-.33,6.76,5.24,5.24,0,0,1-5.1,4.51c-2.4.18-4.81.13-7.22.18Zm.06-5.93c1.95,0,3.78.07,5.6,0,1.55-.08,1.93-.64,2.08-2.58.22-2.64-.26-4.19-1.64-4.32-2-.2-4-.05-6-.05Z"/>
            <path class="cls-2"
                  d="M37.35,44H31.22c-.4-2-.83-2.4-2.81-2.48a18.07,18.07,0,0,0-2.55,0c-1.68.19-2.21.78-2.23,2.33s.45,2.13,2.18,2.31c2.44.26,4.9.35,7.32.69,3.21.44,4.7,2,4.93,5.19a25.37,25.37,0,0,1-.21,5.08,5,5,0,0,1-4.43,4.35,32.5,32.5,0,0,1-12-.06c-2.7-.54-3.94-2-4.28-4.75-.11-.84-.15-1.68-.23-2.63h6.14C24,56.88,24,56.88,27,56.88c.71,0,1.42,0,2.12,0,1.73-.06,2.42-.73,2.47-2.4s-.44-2.28-2.16-2.48c-2.44-.27-4.89-.41-7.32-.76-3.23-.46-4.61-1.9-5-5.17a19.21,19.21,0,0,1,0-4.22c.33-3,1.83-4.77,4.82-5a59.33,59.33,0,0,1,10.15-.08C36.1,37.05,38,39.88,37.35,44Z"/>
            <path class="cls-3"
                  d="M40.19,54.32c1.37-3.88,1.39-3.91,3.26-4v-2H40.08c.6-1.3,1.05-2.43,1.63-3.48a1.29,1.29,0,0,1,1.07-.41c1.29.2,1.86-.43,2.47-1.5a13.06,13.06,0,0,1,20.39-2.78l-1.52,3.3c-2.54-2.79-5.59-3.95-9.21-3.13a8.71,8.71,0,0,0-5.54,4h14.2A37.38,37.38,0,0,1,62,47.71a1.71,1.71,0,0,1-1.27.55c-3.64,0-7.27,0-10.91,0H48.13v2H60.76c-.6,1.33-1,2.47-1.63,3.51-.18.31-.86.47-1.31.47-2.62.05-5.25,0-7.94,0,2.24,4.54,8.3,4.91,14.07.82,0,1.47.06,2.81,0,4.14,0,.35-.5.76-.86,1a13.13,13.13,0,0,1-17.79-4.63,2.17,2.17,0,0,0-2.42-1.32A25.74,25.74,0,0,1,40.19,54.32Z"/>
        </g>
    </g>
</svg>
