<?xml version="1.0" encoding="UTF-8" standalone="no"?>
<!DOCTYPE svg PUBLIC "-//W3C//DTD SVG 1.1//EN" "http://www.w3.org/Graphics/SVG/1.1/DTD/svg11.dtd">
<svg width="100%" height="100%" viewBox="0 0 175 132" version="1.1" xmlns="http://www.w3.org/2000/svg"
     xmlns:xlink="http://www.w3.org/1999/xlink" xml:space="preserve" xmlns:serif="http://www.serif.com/"
     style="fill-rule:evenodd;clip-rule:evenodd;stroke-linejoin:round;stroke-miterlimit:2;">
    <g id="Layer_2">
        <g id="Layer_1-2">
            <rect x="0" y="0" width="175" height="131.25"/>
        </g>
        <g transform="matrix(1,0,0,1,0.243393,-2.36358)">
            <g transform="matrix(0.183207,0,0,0.183207,43.0694,57.9646)">
                <path
                    d="M0,109.428C0,115.433 -4.869,120.3 -10.869,120.3L-120.279,120.3C-126.281,120.3 -131.149,115.433 -131.149,109.428L-131.149,0.015C-131.149,-5.99 -126.281,-10.857 -120.279,-10.857L-10.869,-10.857C-4.869,-10.857 0,-5.99 0,0.015L0,109.428ZM3.031,-48.341L-134.195,-48.341C-153.217,-48.341 -168.637,-32.925 -168.637,-13.9L-168.637,123.322C-168.637,142.343 -153.217,157.769 -134.195,157.769L3.031,157.769C22.053,157.769 37.478,142.343 37.478,123.322L37.478,-13.9C37.478,-32.925 22.053,-48.341 3.031,-48.341"
                    style="fill:white;fill-rule:nonzero;"/>
            </g>
            <g transform="matrix(0.183207,0,0,0.183207,27.0485,62.8137)">
                <path
                    d="M0,56.215C-3.459,56.215 -6.236,53.408 -6.236,49.947L-6.236,6.273C-6.236,2.807 -3.459,0 0,0L43.74,0C47.189,0 49.977,2.807 49.977,6.273L49.977,49.947C49.977,53.408 47.189,56.215 43.74,56.215L0,56.215Z"
                    style="fill:white;fill-rule:nonzero;"/>
            </g>
            <g transform="matrix(0.183207,0,0,0.183207,69.1467,69.9655)">
                <path
                    d="M0,-19.973C-6.385,-21.714 -12.42,-23.358 -17.105,-25.445C-25.787,-29.325 -29.828,-34.7 -29.828,-42.363C-29.828,-56.847 -15.799,-63.33 -1.893,-63.33C11.355,-63.33 22.928,-57.855 30.699,-47.911L31.232,-47.232L42.436,-55.988L41.896,-56.67C31.582,-69.808 16.283,-77.044 -1.182,-77.044C-12.811,-77.044 -23.475,-73.902 -31.213,-68.199C-39.865,-61.815 -44.441,-52.636 -44.441,-41.651C-44.441,-16.102 -20.377,-9.868 -1.043,-4.856C18.525,0.304 30.518,4.226 30.518,19.172C30.518,33.86 18.641,43.347 0.26,43.347C-8.83,43.347 -25.662,40.938 -36.238,24.777L-36.732,24.019L-48.512,32.551L-48.055,33.242C-38.08,48.382 -20.799,57.071 -0.645,57.071C26.729,57.071 45.123,41.626 45.123,18.64C45.123,-7.683 20.105,-14.497 0,-19.973"
                    style="fill:white;fill-rule:nonzero;"/>
            </g>
            <g transform="matrix(0.183207,0,0,0.183207,88.0964,71.2362)">
                <path
                    d="M0,37.133C-14.369,37.133 -29.725,27.583 -29.725,0.785C-29.725,-16.695 -21.918,-35.375 0,-35.375C18.816,-35.375 30.977,-21.18 30.977,0.785C30.977,22.867 18.816,37.133 0,37.133M30.977,-46.052L30.977,-32.222C23.371,-42.549 12.088,-48.195 -1.082,-48.195C-26.131,-48.195 -43.627,-27.98 -43.627,0.961C-43.627,29.806 -26.131,49.953 -1.082,49.953C12.174,49.953 23.455,44.315 30.977,34.005L30.977,85.328L44.15,85.328L44.15,-46.052L30.977,-46.052Z"
                    style="fill:white;fill-rule:nonzero;"/>
            </g>
            <g transform="matrix(0.183207,0,0,0.183207,112.136,80.388)">
                <path
                    d="M0,-96.005L0,-44.153C0,-25.999 -12.426,-12.82 -29.549,-12.82C-43.773,-12.82 -50.686,-21.258 -50.686,-38.612L-50.686,-96.005L-63.867,-96.005L-63.867,-35.929C-63.867,-13.433 -51.637,0 -31.158,0C-18.398,0 -7.434,-5.409 0,-15.303L0,-2.147L13.17,-2.147L13.17,-96.005L0,-96.005Z"
                    style="fill:white;fill-rule:nonzero;"/>
            </g>
            <g transform="matrix(0.183207,0,0,0.183207,124.404,64.7553)">
                <path
                    d="M0,72.508C-6.086,72.508 -20.246,70.881 -20.246,55.835C-20.246,45.371 -13.617,42.251 -0.557,39.872C0.768,39.629 2.137,39.389 3.535,39.146C11.725,37.723 20.934,36.121 27.396,32.068L27.396,45.646C27.396,65.452 13.244,72.508 0,72.508M7.158,-12.82C-6.096,-12.82 -19.27,-8.448 -28.982,-0.83L-29.606,-0.34L-22.721,10.098L-21.975,9.45C-13.783,2.347 -1.738,-0.183 6.799,-0.183C11.633,-0.183 27.396,0.761 27.396,12.907C27.396,23.653 14.299,25.66 1.629,27.603C0.064,27.843 -1.488,28.081 -3.006,28.335C-12.27,29.878 -33.965,33.496 -33.965,56.562C-33.965,74.303 -21.43,85.328 -1.252,85.328C11.123,85.328 20.75,81.107 27.396,72.776L27.396,83.182L40.576,83.182L40.576,15.054C40.576,-2.4 28.084,-12.82 7.158,-12.82"
                    style="fill:white;fill-rule:nonzero;"/>
            </g>
            <g transform="matrix(0.183207,0,0,0.183207,145.809,79.3418)">
                <path
                    d="M0,-88.52C-3.131,-90.751 -8.063,-92.084 -13.203,-92.084C-23.594,-92.084 -34.129,-86.55 -39.889,-78.334L-39.889,-90.294L-53.063,-90.294L-53.063,3.564L-39.889,3.564L-39.889,-46.678C-39.889,-68.939 -27.381,-78.905 -14.99,-78.905C-11.15,-78.905 -7.021,-78.033 -4.479,-76.679L-3.59,-76.207L0.531,-88.144L0,-88.52Z"
                    style="fill:white;fill-rule:nonzero;"/>
            </g>
            <g transform="matrix(0.183207,0,0,0.183207,149.147,73.1112)">
                <path
                    d="M0,-18.711C1.783,-35.199 13.186,-45.793 29.279,-45.793C48.799,-45.793 56.897,-31.976 58.037,-18.711L0,-18.711ZM29.637,-58.43C3.742,-58.43 -14.338,-38.14 -14.338,-9.095C-14.338,20.103 3.762,39.719 30.705,39.719C49.805,39.719 61.361,30.502 67.697,22.769L68.225,22.126L58.682,13.622L58.111,14.357C51.844,22.445 42.365,26.898 31.42,26.898C12.328,26.898 -0.107,13.563 -0.439,-7.148L71.557,-7.148L71.641,-7.918C71.729,-8.697 72.006,-11.487 72.006,-14.636C72.006,-40.421 54.582,-58.43 29.637,-58.43"
                    style="fill:white;fill-rule:nonzero;"/>
            </g>
        </g>
    </g>
</svg>
