<svg xmlns="http://www.w3.org/2000/svg" viewBox="0 0 175 131.25">
    <defs>
        <style>.cls-1{fill:#6772e5;}.cls-2{fill:#fff;}</style>
    </defs>
    <g id="Layer_2" data-name="Layer 2">
        <g id="Layer_1-2" data-name="Layer 1">
            <rect class="cls-1" width="175" height="131.25"/>
            <path class="cls-2"
                  d="M43,61c0-1.12.92-1.56,2.44-1.56a16.19,16.19,0,0,1,7.13,1.84V54.5a18.93,18.93,0,0,0-7.13-1.32c-5.84,0-9.72,3-9.72,8.13,0,7.94,10.93,6.67,10.93,10.09,0,1.33-1.15,1.76-2.76,1.76a17.9,17.9,0,0,1-7.85-2.3V77.7a19.93,19.93,0,0,0,7.85,1.64c6,0,10.09-3,10.09-8.11C54,62.66,43,64.19,43,61ZM62.46,47.43l-7,1.49,0,23a7.23,7.23,0,0,0,7.44,7.39,11.06,11.06,0,0,0,5-1V72.55c-.92.38-5.46,1.7-5.46-2.56V59.79h5.46V53.67H62.43Zm14.37,8.36-.46-2.12H70.16V78.82h7.19v-17a5.06,5.06,0,0,1,5.46-1.49V53.67A4.88,4.88,0,0,0,76.83,55.79Zm7.74-2.12h7.21V78.82H84.57Zm0-2.19,7.21-1.55V44.09l-7.21,1.53Zm22.22,1.7a8.14,8.14,0,0,0-5.64,2.24l-.37-1.78H94.46V87.16l7.18-1.53,0-8.13a8.16,8.16,0,0,0,5.09,1.81c5.15,0,9.83-4.14,9.83-13.25C116.56,57.72,111.82,53.18,106.79,53.18ZM105.06,73a4.29,4.29,0,0,1-3.39-1.35l0-10.66a4.27,4.27,0,0,1,3.42-1.41c2.62,0,4.43,2.93,4.43,6.7S107.71,73,105.06,73Zm34.18-6.64c0-7.36-3.56-13.16-10.37-13.16s-11,5.8-11,13.11c0,8.65,4.88,13,11.9,13a16,16,0,0,0,8-1.87V71.69a15.22,15.22,0,0,1-7,1.58c-2.79,0-5.26-1-5.58-4.37h14.06C139.19,68.53,139.24,67,139.24,66.34ZM125,63.61c0-3.25,2-4.6,3.8-4.6s3.62,1.35,3.62,4.6Z"/>
        </g>
    </g>
</svg>
