<?xml version="1.0" encoding="utf-8"?>
<!-- Generator: Adobe Illustrator 23.0.1, SVG Export Plug-In . SVG Version: 6.00 Build 0)  -->
<svg version="1.1" id="Layer_1" xmlns="http://www.w3.org/2000/svg" xmlns:xlink="http://www.w3.org/1999/xlink" x="0px"
     y="0px"
     viewBox="0 0 100 100" style="enable-background:new 0 0 100 100;" xml:space="preserve">
<path d="M85,42c0-0.7-0.4-1.4-1-1.7L73.1,34L84,27.7c0.6-0.3,1-1,1-1.7c0-0.7-0.4-1.4-1-1.7l-33-19c-0.6-0.4-1.4-0.4-2,0l-33,19
	c-0.6,0.4-1,1-1,1.7c0,0.7,0.4,1.4,1,1.7L26.9,34L16,40.3c-0.6,0.4-1,1-1,1.7c0,0.7,0.4,1.4,1,1.7L26.9,50L16,56.3
	c-0.6,0.4-1,1-1,1.7c0,0.7,0.4,1.4,1,1.7L26.9,66L16,72.3c-0.6,0.4-1,1-1,1.7c0,0.7,0.4,1.4,1,1.7l33,19c0.3,0.2,0.7,0.3,1,0.3
	s0.7-0.1,1-0.3l33-19c0.6-0.3,1-1,1-1.7c0-0.7-0.4-1.4-1-1.7L73.1,66L84,59.7c0.6-0.3,1-1,1-1.7c0-0.7-0.4-1.4-1-1.7L73.1,50
	L84,43.7C84.6,43.4,85,42.7,85,42z M21,26L50,9.3L79,26L50,42.7L21,26z M79,74L50,90.7L21,74l9.9-5.7L49,78.7c0.3,0.2,0.7,0.3,1,0.3
	s0.7-0.1,1-0.3l18.1-10.4L79,74z M79,58L50,74.7L21,58l9.9-5.7L49,62.7c0.3,0.2,0.7,0.3,1,0.3s0.7-0.1,1-0.3l18.1-10.4L79,58z
	 M50,58.7L21,42l9.9-5.7L49,46.7c0.3,0.2,0.7,0.3,1,0.3s0.7-0.1,1-0.3l18.1-10.4L79,42L50,58.7z"/>
</svg>
