<?xml version="1.0" encoding="utf-8"?>
<!-- Generator: Adobe Illustrator 23.0.1, SVG Export Plug-In . SVG Version: 6.00 Build 0)  -->
<svg version="1.1" id="Layer_1" xmlns="http://www.w3.org/2000/svg" xmlns:xlink="http://www.w3.org/1999/xlink" x="0px"
     y="0px"
     viewBox="0 0 100 100" style="enable-background:new 0 0 100 100;" xml:space="preserve">
<path d="M81,47.3c0,1.1-0.9,2-2,2H57c-1.1,0-2-0.9-2-2s0.9-2,2-2h22C80.1,45.3,81,46.2,81,47.3z M79,55.3H57c-1.1,0-2,0.9-2,2
	s0.9,2,2,2h22c1.1,0,2-0.9,2-2S80.1,55.3,79,55.3z M79,65.3H57c-1.1,0-2,0.9-2,2s0.9,2,2,2h22c1.1,0,2-0.9,2-2S80.1,65.3,79,65.3z
	 M79,75.3H21c-1.1,0-2,0.9-2,2s0.9,2,2,2h58c1.1,0,2-0.9,2-2S80.1,75.3,79,75.3z M89,53.3c0,0.7,0.4,1.4,1.1,1.7c0,0,0,0,0,0
	c0.3,0.2,0.6,0.2,0.9,0.2h2c1.1,0,2,0.9,2,2v10c0,1.1-0.9,2-2,2h-2c-1.1,0-2,0.9-2,2s0.9,2,2,2h2c1.1,0,2,0.9,2,2v10
	c0,1.1-0.9,2-2,2h-2c-1.1,0-2,0.9-2,2c0,1.1-0.9,2-2,2H33.3H15.5H13c-1.1,0-2-0.9-2-2c0-1.1-0.9-2-2-2H7c-1.1,0-2-0.9-2-2v-10
	c0-1.1,0.9-2,2-2h0.6H9c1.1,0,2-0.9,2-2s-0.9-2-2-2H7c-1.1,0-2-0.9-2-2V67v-4.9v-4.8c0-1.1,0.9-2,2-2h2c1.1,0,2-0.9,2-2s-0.9-2-2-2
	H7c-1.1,0-2-0.9-2-2v-7.2v-2.8c0-1.1,0.9-2,2-2h2c1.1,0,2-0.9,2-2c0-1.1,0.9-2,2-2h5.6L62,8.9c0.5-0.3,1-0.3,1.5-0.2
	c0.5,0.1,0.9,0.5,1.2,0.9c0.3,0.5,0.7,0.8,1.2,0.9c0.5,0.1,1.1,0.1,1.5-0.2l1.7-1c1-0.5,2.2-0.2,2.7,0.8l4.9,8.7
	c0.3,0.5,0.3,1,0.2,1.5s-0.5,0.9-0.9,1.2l-1.7,1c-0.5,0.3-0.8,0.7-0.9,1.2c-0.1,0.5-0.1,1.1,0.2,1.5c0.5,1,1.8,1.3,2.7,0.8l1.7-1
	c1-0.5,2.2-0.2,2.7,0.8l4.2,7.4H87c1.1,0,2,0.9,2,2c0,1.1,0.9,2,2,2h2c1.1,0,2,0.9,2,2v10c0,1.1-0.9,2-2,2h-1.4H91
	C89.9,51.3,89,52.2,89,53.3z M26.8,33.3h53.6l-2.1-3.7c-2.9,1.6-6.5,0.6-8.2-2.3c-0.8-1.4-1-3-0.5-4.6c0.4-1.5,1.4-2.8,2.8-3.6h0
	l-2.9-5.2l0,0c-1.4,0.8-3,1-4.6,0.5c-0.9-0.2-1.7-0.7-2.3-1.3L26.8,33.3z M91,47.3v-6c-2.6,0-4.8-1.7-5.7-4h-1.6c0,0,0,0,0,0
	s0,0,0,0H19.1h-4.5c-0.8,2.3-3,4-5.7,4v0.8v5.2c3.3,0,6,2.7,6,6s-2.7,6-6,6v2.8v3.2c3.3,0,6,2.7,6,6s-2.7,6-6,6v6
	c2.6,0,4.8,1.7,5.7,4h0.8h17.8h52.1c0.8-2.3,3-4,5.7-4v-6c-3.3,0-6-2.7-6-6s2.7-6,6-6v-6c-1,0-1.9-0.2-2.8-0.7c0,0,0,0,0,0
	c-2-1.1-3.2-3.1-3.2-5.3C85,50,87.7,47.3,91,47.3z M21.7,51.3c1.1-3.4,4-5.7,7.2-5.9c2.2-0.1,4.4,0.6,6.1,2c1.7-1.4,3.9-2.1,6.1-2
	c3.2,0.2,6.1,2.6,7.2,5.9c1.3,4-0.3,8.2-4.2,11.4l-7.9,6.2c-0.4,0.3-0.8,0.4-1.2,0.4s-0.9-0.1-1.2-0.4l-7.9-6.2
	C22,59.5,20.4,55.2,21.7,51.3z M28.4,59.6l6.6,5.2l6.6-5.2c2.6-2.1,3.6-4.7,2.9-7.1c-0.6-1.8-2-3.1-3.6-3.2
	c-1.6-0.1-3.3,0.7-4.3,2.1c-0.4,0.5-1,0.8-1.6,0.8s-1.3-0.3-1.6-0.8c-0.9-1.3-2.4-2.1-4-2.1c-0.1,0-0.2,0-0.3,0
	c-1.5,0.1-3,1.4-3.6,3.2C24.8,54.9,25.8,57.5,28.4,59.6z"/>
</svg>
