<svg xmlns="http://www.w3.org/2000/svg" viewBox="0 0 131.29 98.47">
    <defs>
        <style>.cls-1{fill:#27337a;}.cls-2{fill:#fff;}</style>
    </defs>
    <g id="Layer_2" data-name="Layer 2">
        <g id="Layer_1-2" data-name="Layer 1">
            <rect class="cls-1" width="131.29" height="98.47"/>
            <path class="cls-2"
                  d="M66.9,44.87c-.05,3.37,2.91,5.26,5.14,6.37s3,1.89,3,2.92c0,1.57-1.82,2.26-3.51,2.29a11.91,11.91,0,0,1-6-1.48l-1.07,5.14A17.37,17.37,0,0,0,71,61.35c6.17,0,10.21-3.14,10.23-8,0-6.18-8.29-6.52-8.23-9.29,0-.84.79-1.73,2.49-2a10.81,10.81,0,0,1,5.79,1.05l1-5a15.31,15.31,0,0,0-5.49-1C71,37.12,66.93,40.31,66.9,44.87Zm25.33-7.32a2.69,2.69,0,0,0-2.5,1.72L80.92,61h6.17l1.22-3.49h7.54L96.56,61H102L97.25,37.55Zm.87,6.33,1.77,8.8H90ZM59.42,37.55,54.56,61h5.88l4.85-23.43Zm-8.69,0-6.11,16L42.15,39.94a2.76,2.76,0,0,0-2.71-2.39h-10l-.14.68a24,24,0,0,1,5.8,2,2.57,2.57,0,0,1,1.39,2.06L41.18,61h6.21L56.9,37.55Z"/>
        </g>
    </g>
</svg>
